<svg width="130" height="130" viewBox="0 0 130 130" fill="none" xmlns="http://www.w3.org/2000/svg">
<path d="M129.727 20.0467C128.736 14.8573 126.549 10.7357 122.734 6.9962C119.428 3.71433 115.663 1.60247 111.112 0.457663C108.696 -0.152548 102.643 -0.152548 100.227 0.457662C95.4971 1.65288 91.8596 3.71433 88.376 7.25089C85.8326 9.82041 84.1803 12.3143 82.9337 15.4171C81.7124 18.5464 81.4074 20.3266 81.4074 24.2957C81.4074 28.9253 81.6368 29.9441 83.976 35.6429C84.1033 35.9984 78.1014 40.4251 76.4478 41.1627C75.3286 41.6973 74.8963 41.6973 64.9785 41.6973C55.0606 41.6973 54.6283 41.6973 53.5091 41.1627C51.8568 40.4251 45.8536 35.9984 45.9809 35.6429C48.3201 29.9441 48.5495 28.9266 48.5495 24.2957C48.5495 19.1062 47.5576 15.5444 44.9386 11.3207C43.4374 8.87856 39.6992 5.13903 37.2579 3.63739C33.0369 1.01746 29.4763 0.0252056 24.2874 0.0252054C20.2176 0.0252052 18.5136 0.33031 15.1572 1.67941C9.18053 4.07116 3.94247 9.36275 1.55153 15.4171C0.330196 18.5464 0.0251935 20.3266 0.0251934 24.2957C0.0251931 29.4851 1.01711 33.0469 3.63614 37.2706C5.13728 39.7128 8.87553 43.4523 11.3169 44.9539C15.5378 47.5739 19.0984 48.5661 24.2874 48.5661C28.9154 48.5661 29.9339 48.3366 35.6307 45.9966C35.9861 45.8692 40.3861 51.8228 41.073 53.3748C41.7599 54.9269 42.0397 57.1396 41.8103 59.404C41.5557 61.8461 41.5557 68.1552 41.8103 70.5974C42.0384 72.8618 41.7599 75.0744 41.073 76.6265C40.7932 77.2367 39.5215 79.196 38.2498 80.9258C36.4436 83.3932 35.8336 84.0803 35.5034 83.9278C30.8489 81.8929 27.2631 81.154 23.1429 81.3583C16.6835 81.6886 11.4694 84.0803 6.8665 88.7617C3.63614 92.0688 1.60191 95.7327 0.457497 100.26C-0.152505 102.677 -0.152505 108.732 0.457497 111.148C1.62711 115.778 3.71305 119.492 7.09591 122.902C10.504 126.286 14.217 128.371 18.8451 129.542C21.2612 130.153 27.3135 130.153 29.7296 129.542C34.2569 128.398 37.9182 126.363 41.2255 123.131C45.9053 118.527 48.2949 113.311 48.6264 106.849C48.8293 102.728 48.092 99.1406 46.0578 94.4844C45.9053 94.1541 46.5922 93.5426 49.0587 91.7372C50.788 90.465 52.7466 89.1929 53.3566 88.913C54.9081 88.2258 57.0948 87.9711 59.511 88.1754C62.13 88.4301 67.8269 88.4301 70.4472 88.1754C72.8634 87.9724 75.0501 88.2258 76.6016 88.913C78.1532 89.6001 84.1047 94.0016 83.9774 94.3571C81.6381 100.056 81.4087 101.073 81.4087 105.703C81.4087 110.892 82.4006 114.454 85.0197 118.678C86.5208 121.12 90.2591 124.86 92.7004 126.361C96.9227 128.981 100.483 129.973 105.671 129.973C110.783 129.973 113.834 129.159 118.259 126.589C120.853 125.089 124.719 121.298 126.321 118.678C128.94 114.429 129.932 110.894 129.932 105.703C129.932 100.514 128.94 96.9518 126.321 92.7281C124.82 90.2859 121.081 86.5464 118.64 85.0448C114.419 82.4248 110.859 81.4326 105.67 81.4326C101.041 81.4326 100.023 81.6621 94.3275 84.0021C93.9708 84.1294 89.5469 78.1255 88.8083 76.4713C88.2991 75.3517 88.2739 74.894 88.2739 64.998C88.2739 55.102 88.2991 54.643 88.8083 53.5247C89.5456 51.8705 93.9708 45.8666 94.3275 45.9939C100.024 48.334 101.041 48.5635 105.67 48.5635C109.637 48.5635 111.417 48.2584 114.545 47.0366C117.546 45.8414 120.14 44.1368 122.606 41.7198C126.09 38.3106 128.151 34.7992 129.346 30.1696C130.033 27.6545 130.21 22.5911 129.727 20.0467ZM125.43 29.1296C124.718 31.6739 123.98 33.4037 122.734 35.2861C117.444 43.3767 107.704 46.6068 98.5988 43.3249C97.225 42.8155 96.5646 42.46 96.6919 42.2823C96.794 42.1045 98.7513 39.3824 101.067 36.2014C104.729 31.1128 105.339 30.4004 105.924 30.4004C106.306 30.4004 106.966 30.2731 107.425 30.1205C108.188 29.8406 108.265 29.891 110.197 31.6978C112.613 33.9622 114.851 35.6668 116.326 36.3022C117.293 36.7599 117.47 36.7599 117.801 36.4296C118.131 36.0992 118.131 35.9202 117.673 34.9544C117.038 33.4793 115.334 31.2401 113.07 28.8232C111.264 26.8904 111.214 26.8134 111.494 26.0507C112.206 23.9892 111.621 21.8535 109.867 20.0971C108.112 18.3421 105.976 17.7571 103.915 18.4695C103.153 18.7494 103.076 18.6976 101.144 16.8922C98.7275 14.6278 96.489 12.9232 95.0144 12.2878C94.0477 11.8301 93.87 11.8301 93.5385 12.1604C93.2083 12.4907 93.2083 12.6698 93.6658 13.6356C94.301 15.1107 96.005 17.3499 98.2686 19.7668C100.075 21.6996 100.125 21.7766 99.8454 22.5406C99.6929 22.9983 99.5656 23.6602 99.5656 24.041C99.5656 24.626 98.8535 25.2362 93.7931 28.9001C90.5893 31.2149 87.8681 33.1742 87.6891 33.275C87.5114 33.4024 87.1547 32.7404 86.6468 31.3675C83.366 22.2594 86.5964 12.5159 94.6829 7.22436C102.084 2.36523 111.976 3.02718 118.767 8.77642C122.353 11.8288 124.642 15.7222 125.659 20.4792C126.09 22.5154 125.963 27.1451 125.43 29.1296ZM125.43 110.54C124.361 114.406 122.658 117.434 120.013 120.055C112.077 127.992 99.2858 127.992 91.3504 120.055C86.5951 115.323 84.4587 108.505 85.6787 102.093C86.1614 99.6009 87.3324 96.4968 87.713 96.7263C87.8655 96.8019 90.5866 98.7864 93.7904 101.103C98.8256 104.766 99.5629 105.377 99.5629 105.962C99.5629 106.344 99.6902 107.004 99.8427 107.463C100.123 108.226 100.071 108.303 98.266 110.236C96.0024 112.653 94.2983 114.892 93.6631 116.367C93.2056 117.334 93.2056 117.512 93.5358 117.842C93.866 118.173 94.045 118.173 95.0118 117.715C96.4864 117.079 98.7248 115.375 101.141 113.11C103.073 111.304 103.15 111.253 103.912 111.533C105.972 112.246 108.108 111.661 109.864 109.906C111.618 108.15 112.203 106.013 111.491 103.952C111.211 103.189 111.262 103.112 113.068 101.18C115.331 98.7625 117.035 96.5233 117.671 95.0482C118.128 94.0812 118.128 93.9034 117.798 93.5731C117.468 93.2428 117.289 93.2428 116.323 93.7005C114.849 94.3359 112.61 96.0405 110.194 98.3049C108.262 100.112 108.185 100.162 107.423 99.8821C106.965 99.7296 106.303 99.6022 105.922 99.6022C105.337 99.6022 104.727 98.8899 101.064 93.853C98.7752 90.6733 96.8166 87.9512 96.7145 87.7721C96.4599 87.3649 99.4356 86.2201 102.055 85.712C107.879 84.5924 114.135 86.2718 118.763 90.1891C122.349 93.2415 124.638 97.1349 125.655 101.892C126.09 103.924 125.963 108.555 125.43 110.54ZM44.2769 27.9078C43.7676 30.5278 42.6232 33.5045 42.2161 33.2498C42.0384 33.1477 39.3173 31.1897 36.1386 28.9001C31.1035 25.2362 30.3914 24.626 30.3914 24.041C30.3914 23.6589 30.264 22.9983 30.1115 22.5406C29.8317 21.7779 29.8821 21.7009 31.6883 19.7668C33.9519 17.3499 35.6559 15.1107 36.2911 13.6355C36.7486 12.6685 36.7486 12.4907 36.4184 12.1604C36.0882 11.8301 35.9092 11.8301 34.9438 12.2878C33.4692 12.9232 31.2308 14.6278 28.8146 16.8922C26.8812 18.699 26.8056 18.7494 26.0431 18.4695C21.6935 16.9426 16.9382 21.6996 18.4645 26.0507C18.7443 26.8134 18.6939 26.8904 16.8878 28.8232C14.6241 31.2401 12.9201 33.4793 12.2849 34.9544C11.8274 35.9215 11.8274 36.0992 12.1576 36.4296C12.4878 36.7599 12.6668 36.7599 13.6322 36.3022C15.1082 35.6668 17.3453 33.9622 19.7614 31.6978C21.6935 29.891 21.7704 29.8406 22.5329 30.1205C22.9904 30.2731 23.6522 30.4004 24.0341 30.4004C24.6189 30.4004 25.2289 31.138 28.8915 36.2014C31.2056 39.3811 33.1894 42.1032 33.2663 42.2571C33.4957 42.6391 30.3927 43.8091 27.901 44.292C21.492 45.5137 14.6758 43.3753 9.94568 38.6184C3.17864 31.8517 2.03422 21.2181 7.22189 13.3052C12.4865 5.29159 22.1762 2.00972 31.2042 5.18944C40.4365 8.47131 46.1069 18.3421 44.2769 27.9078ZM44.0474 110.54C42.9799 114.406 41.2746 117.434 38.6304 120.055C31.9667 126.721 21.6922 127.941 13.7065 123.006C3.99153 117.052 1.0423 104.154 7.22189 94.7152C12.5117 86.6247 22.2518 83.3945 31.3567 86.6764C32.7306 87.1858 33.391 87.5413 33.2637 87.7191C33.1616 87.8968 31.2042 90.6189 28.8889 93.8251C25.2262 98.8886 24.6162 99.6009 24.0314 99.6009C23.6495 99.6009 22.9891 99.7283 22.5303 99.8808C21.7678 100.161 21.6909 100.11 19.6818 98.2266C17.3426 96.0139 14.8748 94.2072 13.4771 93.597C12.6376 93.2653 12.4599 93.2401 12.1549 93.5718C11.8247 93.9021 11.8248 94.0812 12.2823 95.0469C12.9175 96.5233 14.6215 98.7612 16.8851 101.178C18.6912 103.111 18.7416 103.188 18.4618 103.951C17.7497 106.012 18.3345 108.148 20.0889 109.904C21.8434 111.659 23.9797 112.244 26.0404 111.532C26.8029 111.252 26.8799 111.302 28.812 113.109C31.2281 115.374 33.4666 117.078 34.9412 117.714C35.9079 118.171 36.0856 118.171 36.4158 117.841C36.746 117.536 36.7208 117.358 36.3906 116.518C35.7806 115.119 33.9744 112.651 31.7625 110.31C29.8808 108.3 29.8291 108.225 30.1089 107.461C30.2614 107.003 30.3887 106.341 30.3887 105.959C30.3887 105.374 31.126 104.764 36.1877 101.1C39.3663 98.7851 42.0875 96.8006 42.2413 96.7236C42.5967 96.5207 43.7411 99.4709 44.2755 101.888C44.7078 103.924 44.5818 108.555 44.0474 110.54Z" fill="#807777"/>
</svg>
