<svg width="401" height="242" viewBox="0 0 401 242" fill="none" xmlns="http://www.w3.org/2000/svg">
<path d="M183.789 24.4688L186.25 31.0078L188.705 24.4688H190.621V33H189.145V30.1875L189.291 26.4258L186.771 33H185.711L183.197 26.4316L183.344 30.1875V33H181.867V24.4688H183.789ZM196.029 33C195.967 32.8789 195.912 32.6816 195.865 32.4082C195.412 32.8809 194.857 33.1172 194.201 33.1172C193.564 33.1172 193.045 32.9355 192.643 32.5723C192.24 32.209 192.039 31.7598 192.039 31.2246C192.039 30.5488 192.289 30.0312 192.789 29.6719C193.293 29.3086 194.012 29.127 194.945 29.127H195.818V28.7109C195.818 28.3828 195.727 28.1211 195.543 27.9258C195.359 27.7266 195.08 27.627 194.705 27.627C194.381 27.627 194.115 27.709 193.908 27.873C193.701 28.0332 193.598 28.2383 193.598 28.4883H192.174C192.174 28.1406 192.289 27.8164 192.52 27.5156C192.75 27.2109 193.062 26.9727 193.457 26.8008C193.855 26.6289 194.299 26.543 194.787 26.543C195.529 26.543 196.121 26.7305 196.562 27.1055C197.004 27.4766 197.23 28 197.242 28.6758V31.5352C197.242 32.1055 197.322 32.5605 197.482 32.9004V33H196.029ZM194.465 31.9746C194.746 31.9746 195.01 31.9062 195.256 31.7695C195.506 31.6328 195.693 31.4492 195.818 31.2188V30.0234H195.051C194.523 30.0234 194.127 30.1152 193.861 30.2988C193.596 30.4824 193.463 30.7422 193.463 31.0781C193.463 31.3516 193.553 31.5703 193.732 31.7344C193.916 31.8945 194.16 31.9746 194.465 31.9746ZM202.287 31.2773C202.287 31.0234 202.182 30.8301 201.971 30.6973C201.764 30.5645 201.418 30.4473 200.934 30.3457C200.449 30.2441 200.045 30.1152 199.721 29.959C199.01 29.6152 198.654 29.1172 198.654 28.4648C198.654 27.918 198.885 27.4609 199.346 27.0938C199.807 26.7266 200.393 26.543 201.104 26.543C201.861 26.543 202.473 26.7305 202.938 27.1055C203.406 27.4805 203.641 27.9668 203.641 28.5645H202.217C202.217 28.291 202.115 28.0645 201.912 27.8848C201.709 27.7012 201.439 27.6094 201.104 27.6094C200.791 27.6094 200.535 27.6816 200.336 27.8262C200.141 27.9707 200.043 28.1641 200.043 28.4062C200.043 28.625 200.135 28.7949 200.318 28.916C200.502 29.0371 200.873 29.1602 201.432 29.2852C201.99 29.4062 202.428 29.5527 202.744 29.7246C203.064 29.8926 203.301 30.0957 203.453 30.334C203.609 30.5723 203.688 30.8613 203.688 31.2012C203.688 31.7715 203.451 32.2344 202.979 32.5898C202.506 32.9414 201.887 33.1172 201.121 33.1172C200.602 33.1172 200.139 33.0234 199.732 32.8359C199.326 32.6484 199.01 32.3906 198.783 32.0625C198.557 31.7344 198.443 31.3809 198.443 31.002H199.826C199.846 31.3379 199.973 31.5977 200.207 31.7812C200.441 31.9609 200.752 32.0508 201.139 32.0508C201.514 32.0508 201.799 31.9805 201.994 31.8398C202.189 31.6953 202.287 31.5078 202.287 31.2773ZM206.717 25.1191V26.6602H207.836V27.7148H206.717V31.2539C206.717 31.4961 206.764 31.6719 206.857 31.7812C206.955 31.8867 207.127 31.9395 207.373 31.9395C207.537 31.9395 207.703 31.9199 207.871 31.8809V32.9824C207.547 33.0723 207.234 33.1172 206.934 33.1172C205.84 33.1172 205.293 32.5137 205.293 31.3066V27.7148H204.25V26.6602H205.293V25.1191H206.717ZM211.721 33.1172C210.818 33.1172 210.086 32.834 209.523 32.2676C208.965 31.6973 208.686 30.9395 208.686 29.9941V29.8184C208.686 29.1855 208.807 28.6211 209.049 28.125C209.295 27.625 209.639 27.2363 210.08 26.959C210.521 26.6816 211.014 26.543 211.557 26.543C212.42 26.543 213.086 26.8184 213.555 27.3691C214.027 27.9199 214.264 28.6992 214.264 29.707V30.2812H210.121C210.164 30.8047 210.338 31.2188 210.643 31.5234C210.951 31.8281 211.338 31.9805 211.803 31.9805C212.455 31.9805 212.986 31.7168 213.396 31.1895L214.164 31.9219C213.91 32.3008 213.57 32.5957 213.145 32.8066C212.723 33.0137 212.248 33.1172 211.721 33.1172ZM211.551 27.6855C211.16 27.6855 210.844 27.8223 210.602 28.0957C210.363 28.3691 210.211 28.75 210.145 29.2383H212.857V29.1328C212.826 28.6562 212.699 28.2969 212.477 28.0547C212.254 27.8086 211.945 27.6855 211.551 27.6855ZM218.693 27.9609C218.506 27.9297 218.312 27.9141 218.113 27.9141C217.461 27.9141 217.021 28.1641 216.795 28.6641V33H215.371V26.6602H216.73L216.766 27.3691C217.109 26.8184 217.586 26.543 218.195 26.543C218.398 26.543 218.566 26.5703 218.699 26.625L218.693 27.9609Z" fill="black"/>
<rect x="102.5" y="11.5" width="196" height="35" stroke="black"/>
<rect x="0.5" y="173.5" width="124" height="35" stroke="black"/>
<path d="M45.002 191.713H43.3496V195H41.8672V186.469H44.8672C45.8516 186.469 46.6113 186.689 47.1465 187.131C47.6816 187.572 47.9492 188.211 47.9492 189.047C47.9492 189.617 47.8105 190.096 47.5332 190.482C47.2598 190.865 46.877 191.16 46.3848 191.367L48.3008 194.924V195H46.7129L45.002 191.713ZM43.3496 190.523H44.873C45.373 190.523 45.7637 190.398 46.0449 190.148C46.3262 189.895 46.4668 189.549 46.4668 189.111C46.4668 188.654 46.3359 188.301 46.0742 188.051C45.8164 187.801 45.4297 187.672 44.9141 187.664H43.3496V190.523ZM48.9512 191.771C48.9512 191.15 49.0742 190.592 49.3203 190.096C49.5664 189.596 49.9121 189.213 50.3574 188.947C50.8027 188.678 51.3145 188.543 51.8926 188.543C52.748 188.543 53.4414 188.818 53.9727 189.369C54.5078 189.92 54.7969 190.65 54.8398 191.561L54.8457 191.895C54.8457 192.52 54.7246 193.078 54.4824 193.57C54.2441 194.062 53.9004 194.443 53.4512 194.713C53.0059 194.982 52.4902 195.117 51.9043 195.117C51.0098 195.117 50.293 194.82 49.7539 194.227C49.2188 193.629 48.9512 192.834 48.9512 191.842V191.771ZM50.375 191.895C50.375 192.547 50.5098 193.059 50.7793 193.43C51.0488 193.797 51.4238 193.98 51.9043 193.98C52.3848 193.98 52.7578 193.793 53.0234 193.418C53.293 193.043 53.4277 192.494 53.4277 191.771C53.4277 191.131 53.2891 190.623 53.0117 190.248C52.7383 189.873 52.3652 189.686 51.8926 189.686C51.4277 189.686 51.0586 189.871 50.7852 190.242C50.5117 190.609 50.375 191.16 50.375 191.895ZM61.6133 191.895C61.6133 192.879 61.3926 193.662 60.9512 194.244C60.5137 194.826 59.9102 195.117 59.1406 195.117C58.3984 195.117 57.8203 194.85 57.4062 194.314L57.3359 195H56.0469V186H57.4707V189.27C57.8809 188.785 58.4336 188.543 59.1289 188.543C59.9023 188.543 60.5098 188.83 60.9512 189.404C61.3926 189.979 61.6133 190.781 61.6133 191.812V191.895ZM60.1895 191.771C60.1895 191.084 60.0684 190.568 59.8262 190.225C59.584 189.881 59.2324 189.709 58.7715 189.709C58.1543 189.709 57.7207 189.979 57.4707 190.518V193.131C57.7246 193.682 58.1621 193.957 58.7832 193.957C59.2285 193.957 59.5723 193.791 59.8145 193.459C60.0566 193.127 60.1816 192.625 60.1895 191.953V191.771ZM62.5449 191.771C62.5449 191.15 62.668 190.592 62.9141 190.096C63.1602 189.596 63.5059 189.213 63.9512 188.947C64.3965 188.678 64.9082 188.543 65.4863 188.543C66.3418 188.543 67.0352 188.818 67.5664 189.369C68.1016 189.92 68.3906 190.65 68.4336 191.561L68.4395 191.895C68.4395 192.52 68.3184 193.078 68.0762 193.57C67.8379 194.062 67.4941 194.443 67.0449 194.713C66.5996 194.982 66.084 195.117 65.498 195.117C64.6035 195.117 63.8867 194.82 63.3477 194.227C62.8125 193.629 62.5449 192.834 62.5449 191.842V191.771ZM63.9688 191.895C63.9688 192.547 64.1035 193.059 64.373 193.43C64.6426 193.797 65.0176 193.98 65.498 193.98C65.9785 193.98 66.3516 193.793 66.6172 193.418C66.8867 193.043 67.0215 192.494 67.0215 191.771C67.0215 191.131 66.8828 190.623 66.6055 190.248C66.332 189.873 65.959 189.686 65.4863 189.686C65.0215 189.686 64.6523 189.871 64.3789 190.242C64.1055 190.609 63.9688 191.16 63.9688 191.895ZM71.4277 187.119V188.66H72.5469V189.715H71.4277V193.254C71.4277 193.496 71.4746 193.672 71.5684 193.781C71.666 193.887 71.8379 193.939 72.084 193.939C72.248 193.939 72.4141 193.92 72.582 193.881V194.982C72.2578 195.072 71.9453 195.117 71.6445 195.117C70.5508 195.117 70.0039 194.514 70.0039 193.307V189.715H68.9609V188.66H70.0039V187.119H71.4277ZM76.4023 191.947H73.3262V190.799H76.4023V191.947ZM81.3418 195H79.9238V188.15L77.832 188.865V187.664L81.1602 186.439H81.3418V195Z" fill="black"/>
<rect x="138.5" y="103.5" width="124" height="35" stroke="black"/>
<path d="M183.002 121.713H181.35V125H179.867V116.469H182.867C183.852 116.469 184.611 116.689 185.146 117.131C185.682 117.572 185.949 118.211 185.949 119.047C185.949 119.617 185.811 120.096 185.533 120.482C185.26 120.865 184.877 121.16 184.385 121.367L186.301 124.924V125H184.713L183.002 121.713ZM181.35 120.523H182.873C183.373 120.523 183.764 120.398 184.045 120.148C184.326 119.895 184.467 119.549 184.467 119.111C184.467 118.654 184.336 118.301 184.074 118.051C183.816 117.801 183.43 117.672 182.914 117.664H181.35V120.523ZM186.951 121.771C186.951 121.15 187.074 120.592 187.32 120.096C187.566 119.596 187.912 119.213 188.357 118.947C188.803 118.678 189.314 118.543 189.893 118.543C190.748 118.543 191.441 118.818 191.973 119.369C192.508 119.92 192.797 120.65 192.84 121.561L192.846 121.895C192.846 122.52 192.725 123.078 192.482 123.57C192.244 124.062 191.9 124.443 191.451 124.713C191.006 124.982 190.49 125.117 189.904 125.117C189.01 125.117 188.293 124.82 187.754 124.227C187.219 123.629 186.951 122.834 186.951 121.842V121.771ZM188.375 121.895C188.375 122.547 188.51 123.059 188.779 123.43C189.049 123.797 189.424 123.98 189.904 123.98C190.385 123.98 190.758 123.793 191.023 123.418C191.293 123.043 191.428 122.494 191.428 121.771C191.428 121.131 191.289 120.623 191.012 120.248C190.738 119.873 190.365 119.686 189.893 119.686C189.428 119.686 189.059 119.871 188.785 120.242C188.512 120.609 188.375 121.16 188.375 121.895ZM199.613 121.895C199.613 122.879 199.393 123.662 198.951 124.244C198.514 124.826 197.91 125.117 197.141 125.117C196.398 125.117 195.82 124.85 195.406 124.314L195.336 125H194.047V116H195.471V119.27C195.881 118.785 196.434 118.543 197.129 118.543C197.902 118.543 198.51 118.83 198.951 119.404C199.393 119.979 199.613 120.781 199.613 121.812V121.895ZM198.189 121.771C198.189 121.084 198.068 120.568 197.826 120.225C197.584 119.881 197.232 119.709 196.771 119.709C196.154 119.709 195.721 119.979 195.471 120.518V123.131C195.725 123.682 196.162 123.957 196.783 123.957C197.229 123.957 197.572 123.791 197.814 123.459C198.057 123.127 198.182 122.625 198.189 121.953V121.771ZM200.545 121.771C200.545 121.15 200.668 120.592 200.914 120.096C201.16 119.596 201.506 119.213 201.951 118.947C202.396 118.678 202.908 118.543 203.486 118.543C204.342 118.543 205.035 118.818 205.566 119.369C206.102 119.92 206.391 120.65 206.434 121.561L206.439 121.895C206.439 122.52 206.318 123.078 206.076 123.57C205.838 124.062 205.494 124.443 205.045 124.713C204.6 124.982 204.084 125.117 203.498 125.117C202.604 125.117 201.887 124.82 201.348 124.227C200.812 123.629 200.545 122.834 200.545 121.842V121.771ZM201.969 121.895C201.969 122.547 202.104 123.059 202.373 123.43C202.643 123.797 203.018 123.98 203.498 123.98C203.979 123.98 204.352 123.793 204.617 123.418C204.887 123.043 205.021 122.494 205.021 121.771C205.021 121.131 204.883 120.623 204.605 120.248C204.332 119.873 203.959 119.686 203.486 119.686C203.021 119.686 202.652 119.871 202.379 120.242C202.105 120.609 201.969 121.16 201.969 121.895ZM209.428 117.119V118.66H210.547V119.715H209.428V123.254C209.428 123.496 209.475 123.672 209.568 123.781C209.666 123.887 209.838 123.939 210.084 123.939C210.248 123.939 210.414 123.92 210.582 123.881V124.982C210.258 125.072 209.945 125.117 209.645 125.117C208.551 125.117 208.004 124.514 208.004 123.307V119.715H206.961V118.66H208.004V117.119H209.428ZM214.402 121.947H211.326V120.799H214.402V121.947ZM221.223 125H215.486V124.021L218.328 120.922C218.738 120.465 219.029 120.084 219.201 119.779C219.377 119.471 219.465 119.162 219.465 118.854C219.465 118.447 219.35 118.119 219.119 117.869C218.893 117.619 218.586 117.494 218.199 117.494C217.738 117.494 217.381 117.635 217.127 117.916C216.873 118.197 216.746 118.582 216.746 119.07H215.322C215.322 118.551 215.439 118.084 215.674 117.67C215.912 117.252 216.25 116.928 216.688 116.697C217.129 116.467 217.637 116.352 218.211 116.352C219.039 116.352 219.691 116.561 220.168 116.979C220.648 117.393 220.889 117.967 220.889 118.701C220.889 119.127 220.768 119.574 220.525 120.043C220.287 120.508 219.895 121.037 219.348 121.631L217.262 123.863H221.223V125Z" fill="black"/>
<rect x="276.5" y="173.5" width="124" height="35" stroke="black"/>
<path d="M321.002 191.713H319.35V195H317.867V186.469H320.867C321.852 186.469 322.611 186.689 323.146 187.131C323.682 187.572 323.949 188.211 323.949 189.047C323.949 189.617 323.811 190.096 323.533 190.482C323.26 190.865 322.877 191.16 322.385 191.367L324.301 194.924V195H322.713L321.002 191.713ZM319.35 190.523H320.873C321.373 190.523 321.764 190.398 322.045 190.148C322.326 189.895 322.467 189.549 322.467 189.111C322.467 188.654 322.336 188.301 322.074 188.051C321.816 187.801 321.43 187.672 320.914 187.664H319.35V190.523ZM324.951 191.771C324.951 191.15 325.074 190.592 325.32 190.096C325.566 189.596 325.912 189.213 326.357 188.947C326.803 188.678 327.314 188.543 327.893 188.543C328.748 188.543 329.441 188.818 329.973 189.369C330.508 189.92 330.797 190.65 330.84 191.561L330.846 191.895C330.846 192.52 330.725 193.078 330.482 193.57C330.244 194.062 329.9 194.443 329.451 194.713C329.006 194.982 328.49 195.117 327.904 195.117C327.01 195.117 326.293 194.82 325.754 194.227C325.219 193.629 324.951 192.834 324.951 191.842V191.771ZM326.375 191.895C326.375 192.547 326.51 193.059 326.779 193.43C327.049 193.797 327.424 193.98 327.904 193.98C328.385 193.98 328.758 193.793 329.023 193.418C329.293 193.043 329.428 192.494 329.428 191.771C329.428 191.131 329.289 190.623 329.012 190.248C328.738 189.873 328.365 189.686 327.893 189.686C327.428 189.686 327.059 189.871 326.785 190.242C326.512 190.609 326.375 191.16 326.375 191.895ZM337.613 191.895C337.613 192.879 337.393 193.662 336.951 194.244C336.514 194.826 335.91 195.117 335.141 195.117C334.398 195.117 333.82 194.85 333.406 194.314L333.336 195H332.047V186H333.471V189.27C333.881 188.785 334.434 188.543 335.129 188.543C335.902 188.543 336.51 188.83 336.951 189.404C337.393 189.979 337.613 190.781 337.613 191.812V191.895ZM336.189 191.771C336.189 191.084 336.068 190.568 335.826 190.225C335.584 189.881 335.232 189.709 334.771 189.709C334.154 189.709 333.721 189.979 333.471 190.518V193.131C333.725 193.682 334.162 193.957 334.783 193.957C335.229 193.957 335.572 193.791 335.814 193.459C336.057 193.127 336.182 192.625 336.189 191.953V191.771ZM338.545 191.771C338.545 191.15 338.668 190.592 338.914 190.096C339.16 189.596 339.506 189.213 339.951 188.947C340.396 188.678 340.908 188.543 341.486 188.543C342.342 188.543 343.035 188.818 343.566 189.369C344.102 189.92 344.391 190.65 344.434 191.561L344.439 191.895C344.439 192.52 344.318 193.078 344.076 193.57C343.838 194.062 343.494 194.443 343.045 194.713C342.6 194.982 342.084 195.117 341.498 195.117C340.604 195.117 339.887 194.82 339.348 194.227C338.812 193.629 338.545 192.834 338.545 191.842V191.771ZM339.969 191.895C339.969 192.547 340.104 193.059 340.373 193.43C340.643 193.797 341.018 193.98 341.498 193.98C341.979 193.98 342.352 193.793 342.617 193.418C342.887 193.043 343.021 192.494 343.021 191.771C343.021 191.131 342.883 190.623 342.605 190.248C342.332 189.873 341.959 189.686 341.486 189.686C341.021 189.686 340.652 189.871 340.379 190.242C340.105 190.609 339.969 191.16 339.969 191.895ZM347.428 187.119V188.66H348.547V189.715H347.428V193.254C347.428 193.496 347.475 193.672 347.568 193.781C347.666 193.887 347.838 193.939 348.084 193.939C348.248 193.939 348.414 193.92 348.582 193.881V194.982C348.258 195.072 347.945 195.117 347.645 195.117C346.551 195.117 346.004 194.514 346.004 193.307V189.715H344.961V188.66H346.004V187.119H347.428ZM352.402 191.947H349.326V190.799H352.402V191.947ZM354.898 188.66L354.939 189.393C355.408 188.826 356.023 188.543 356.785 188.543C358.105 188.543 358.777 189.299 358.801 190.811V195H357.377V190.893C357.377 190.49 357.289 190.193 357.113 190.002C356.941 189.807 356.658 189.709 356.264 189.709C355.689 189.709 355.262 189.969 354.98 190.488V195H353.557V188.66H354.898Z" fill="black"/>
<path d="M139 47L133.93 49.7611L138.856 52.7717L139 47ZM62 173L67.0705 170.239L62.144 167.228L62 173ZM136.227 50.579L63.9199 168.9L64.7732 169.421L137.08 51.1005L136.227 50.579Z" fill="black"/>
<path d="M263 47L263.077 52.773L268.038 49.8199L263 47ZM338 173L337.923 167.227L332.962 170.18L338 173ZM264.872 51.1226L335.269 169.389L336.128 168.877L265.731 50.6111L264.872 51.1226Z" fill="black"/>
<path d="M201 47L198.113 52H203.887L201 47ZM201 103L203.887 98H198.113L201 103ZM200.5 51.5L200.5 98.5H201.5L201.5 51.5H200.5Z" fill="black"/>
<path d="M147 139L141.446 140.577L145.589 144.598L147 139ZM114 173L119.554 171.423L115.411 167.402L114 173ZM143.507 141.881L116.775 169.423L117.493 170.119L144.225 142.577L143.507 141.881Z" fill="black"/>
<path d="M276 191L271 188.113V193.887L276 191ZM125 191L130 193.887V188.113L125 191ZM267.772 190.5H260.997V191.5H267.772V190.5ZM256.157 190.5H249.381V191.5H256.157V190.5ZM244.542 190.5H237.766V191.5H244.542V190.5ZM232.926 190.5H226.151V191.5H232.926V190.5ZM221.311 190.5H214.535V191.5H221.311V190.5ZM209.696 190.5H202.92V191.5H209.696V190.5ZM198.08 190.5H191.304V191.5H198.08V190.5ZM186.465 190.5H179.689V191.5H186.465V190.5ZM174.849 190.5H168.074V191.5H174.849V190.5ZM163.234 190.5L156.458 190.5V191.5L163.234 191.5V190.5ZM151.619 190.5H144.843V191.5H151.619V190.5ZM140.003 190.5H133.228V191.5H140.003V190.5ZM276 191L266 185.226V196.774L276 191ZM125 191L135 196.774V185.226L125 191ZM267.772 190H260.997V192H267.772V190ZM256.157 190H249.381V192H256.157V190ZM244.542 190H237.766V192H244.542V190ZM232.926 190H226.151V192H232.926V190ZM221.311 190H214.535V192H221.311V190ZM209.696 190H202.92V192H209.696V190ZM198.08 190H191.304V192H198.08V190ZM186.465 190H179.689V192H186.465V190ZM174.849 190H168.074V192H174.849V190ZM163.234 190L156.458 190V192L163.234 192V190ZM151.619 190H144.843V192H151.619V190ZM140.003 190H133.228V192H140.003V190Z" fill="black"/>
<path d="M256 139L257.411 144.598L261.554 140.577L256 139ZM289 173L287.589 167.402L283.446 171.423L289 173ZM258.775 142.577L285.507 170.119L286.225 169.423L259.493 141.881L258.775 142.577Z" fill="black"/>
<path d="M58.2136 155.488C58.8216 155.947 59.1789 156.496 59.2856 157.135C59.3896 157.773 59.2288 158.437 58.8034 159.127C58.5061 159.609 58.1303 159.964 57.6758 160.193C57.2203 160.417 56.7205 160.498 56.1763 160.438C55.6321 160.378 55.079 160.18 54.517 159.845L53.9517 159.497C53.3809 159.145 52.9404 158.734 52.6301 158.263C52.3198 157.793 52.1631 157.296 52.1599 156.774C52.1584 156.249 52.3106 155.739 52.6165 155.243C53.0282 154.575 53.5411 154.15 54.1553 153.966C54.7694 153.783 55.4281 153.862 56.1313 154.204L55.4855 155.251C55.0197 155.033 54.628 154.967 54.3104 155.054C53.9917 155.137 53.7111 155.375 53.4685 155.768C53.1866 156.226 53.1372 156.681 53.3204 157.134C53.5026 157.583 53.9147 158.009 54.5569 158.413L55.0931 158.744C55.747 159.147 56.3175 159.338 56.8046 159.317C57.2934 159.293 57.677 159.056 57.9555 158.604C58.2101 158.191 58.3086 157.824 58.2511 157.501C58.1936 157.179 57.9658 156.857 57.5677 156.535L58.2136 155.488ZM58.2984 154.634C57.8579 154.362 57.5155 154.03 57.2712 153.639C57.0242 153.246 56.9039 152.833 56.9102 152.401C56.9138 151.967 57.042 151.545 57.2949 151.135C57.669 150.528 58.1676 150.157 58.7907 150.021C59.4154 149.882 60.06 149.997 60.7244 150.364L60.9639 150.506C61.4072 150.78 61.7505 151.11 61.9937 151.497C62.2386 151.881 62.3584 152.292 62.3531 152.728C62.3495 153.162 62.2196 153.587 61.9633 154.002C61.572 154.637 61.0479 155.015 60.391 155.138C59.733 155.256 59.0521 155.098 58.3483 154.664L58.2984 154.634ZM59.0085 153.677C59.4712 153.963 59.8931 154.091 60.2742 154.062C60.6526 154.032 60.9468 153.846 61.157 153.505C61.3671 153.164 61.3973 152.818 61.2475 152.465C61.0994 152.11 60.769 151.774 60.2564 151.458C59.802 151.178 59.3811 151.054 58.9938 151.087C58.6082 151.117 58.3121 151.3 58.1053 151.635C57.902 151.965 57.8722 152.308 58.0158 152.664C58.1567 153.018 58.4876 153.356 59.0085 153.677ZM59.7819 147.288L60.2695 147.548C60.0957 147.005 60.178 146.459 60.5163 145.911C60.887 145.309 61.3707 145.04 61.9673 145.102C61.709 144.491 61.7626 143.889 62.1282 143.296C62.4341 142.801 62.7985 142.517 63.2214 142.445C63.6461 142.37 64.1275 142.495 64.6657 142.819L67.6207 144.641L66.998 145.651L64.072 143.847C63.7866 143.671 63.539 143.604 63.3291 143.647C63.1192 143.69 62.9254 143.855 62.7477 144.143C62.6059 144.373 62.5521 144.6 62.5862 144.824C62.6193 145.043 62.7177 145.243 62.8813 145.424L65.9678 147.322L65.345 148.332L62.3858 146.507C61.848 146.195 61.4168 146.302 61.0922 146.828C60.8428 147.233 60.8308 147.621 61.0563 147.993L64.3148 150.003L63.692 151.013L59.195 148.24L59.7819 147.288ZM64.3487 139.881L64.8363 140.142C64.6626 139.599 64.7448 139.053 65.0831 138.504C65.4539 137.903 65.9375 137.633 66.5342 137.695C66.2758 137.085 66.3295 136.483 66.6951 135.89C67.0009 135.394 67.3653 135.11 67.7882 135.038C68.2129 134.964 68.6943 135.088 69.2325 135.413L72.1876 137.235L71.5648 138.245L68.6389 136.44C68.3535 136.264 68.1058 136.198 67.8959 136.24C67.6861 136.283 67.4923 136.449 67.3146 136.737C67.1728 136.967 67.1189 137.194 67.1531 137.417C67.1862 137.637 67.2845 137.837 67.4481 138.018L70.5346 139.915L69.9118 140.925L66.9526 139.101C66.4149 138.788 65.9837 138.895 65.659 139.422C65.4096 139.826 65.3976 140.215 65.6231 140.587L68.8816 142.596L68.2589 143.606L63.7618 140.833L64.3487 139.881ZM74.4838 133.511C74.3706 133.502 74.2067 133.455 73.9923 133.368C74.1294 133.896 74.0544 134.393 73.7674 134.859C73.4889 135.31 73.1328 135.599 72.6991 135.726C72.2655 135.852 71.8588 135.799 71.4792 135.565C70.9999 135.269 70.7421 134.865 70.7059 134.353C70.6686 133.837 70.8541 133.248 71.2624 132.586L71.6443 131.966L71.3492 131.784C71.1165 131.641 70.8907 131.592 70.6718 131.636C70.4502 131.679 70.2574 131.834 70.0934 132.1C69.9516 132.33 69.8936 132.554 69.9194 132.773C69.9425 132.99 70.0426 133.153 70.22 133.262L69.5972 134.272C69.3506 134.12 69.171 133.897 69.0585 133.602C68.9432 133.305 68.9108 132.979 68.9615 132.624C69.0138 132.266 69.1468 131.914 69.3604 131.568C69.685 131.041 70.0768 130.703 70.5359 130.554C70.9922 130.404 71.4625 130.472 71.947 130.759L73.9752 132.01C74.3798 132.259 74.7376 132.401 75.0487 132.436L75.1194 132.48L74.4838 133.511ZM73.0722 134.172C73.1952 133.972 73.2621 133.755 73.2727 133.521C73.2851 133.284 73.2369 133.071 73.1281 132.881L72.2802 132.358L71.9445 132.903C71.7138 133.277 71.6055 133.598 71.6196 133.867C71.6336 134.136 71.7598 134.344 71.9981 134.491C72.192 134.61 72.3865 134.642 72.5815 134.586C72.7754 134.526 72.939 134.388 73.0722 134.172ZM71.7474 127.882L72.2849 128.174C72.0881 127.593 72.1563 127.033 72.4895 126.493C73.067 125.556 73.897 125.41 74.9795 126.055L77.9512 127.887L77.3285 128.897L74.415 127.101C74.1296 126.925 73.8806 126.857 73.6679 126.898C73.4542 126.935 73.261 127.093 73.0885 127.373C72.8373 127.78 72.8345 128.197 73.08 128.624L76.2803 130.597L75.6576 131.607L71.1605 128.834L71.7474 127.882ZM76.1897 125.637C75.497 125.21 75.0405 124.706 74.8203 124.127C74.5974 123.546 74.6525 122.985 74.9856 122.445C75.2795 121.968 75.6832 121.686 76.1968 121.597L73.8943 120.177L74.517 119.167L80.901 123.104L80.3372 124.018L79.8409 123.781C80.0204 124.308 79.9547 124.824 79.6438 125.328C79.3191 125.855 78.8441 126.151 78.2185 126.217C77.5947 126.279 76.9184 126.086 76.1897 125.637ZM76.8997 124.681C77.3569 124.962 77.7682 125.096 78.1335 125.08C78.4978 125.06 78.7798 124.888 78.9797 124.563C79.2343 124.151 79.2363 123.735 78.9856 123.316L77.0655 122.132C76.5908 122.096 76.2262 122.284 75.9716 122.697C75.77 123.024 75.7447 123.356 75.8959 123.694C76.0442 124.031 76.3788 124.359 76.8997 124.681ZM84.5145 117.243C84.4012 117.235 84.2374 117.187 84.0229 117.101C84.16 117.629 84.085 118.126 83.798 118.591C83.5195 119.043 83.1634 119.332 82.7298 119.458C82.2961 119.585 81.8895 119.531 81.5099 119.297C81.0305 119.002 80.7727 118.598 80.7365 118.086C80.6992 117.57 80.8848 116.98 81.2931 116.318L81.6749 115.699L81.3798 115.517C81.1471 115.373 80.9213 115.324 80.7025 115.369C80.4809 115.412 80.288 115.567 80.124 115.833C79.9822 116.063 79.9242 116.287 79.95 116.505C79.9731 116.722 80.0733 116.885 80.2506 116.995L79.6279 118.005C79.3813 117.853 79.2017 117.629 79.0891 117.334C78.9738 117.037 78.9415 116.711 78.9921 116.356C79.0445 115.999 79.1774 115.647 79.391 115.3C79.7156 114.774 80.1075 114.436 80.5665 114.287C81.0228 114.136 81.4932 114.204 81.9777 114.492L84.0059 115.742C84.4104 115.992 84.7683 116.134 85.0794 116.169L85.15 116.213L84.5145 117.243ZM83.1029 117.904C83.2259 117.705 83.2927 117.488 83.3034 117.254C83.3157 117.017 83.2675 116.803 83.1587 116.614L82.3108 116.091L81.9751 116.635C81.7445 117.01 81.6362 117.331 81.6502 117.6C81.6643 117.868 81.7904 118.076 82.0287 118.223C82.2227 118.343 82.4171 118.375 82.6121 118.319C82.806 118.259 82.9696 118.121 83.1029 117.904ZM81.778 111.615L82.3155 111.906C82.1188 111.326 82.187 110.766 82.5201 110.225C83.0976 109.289 83.9276 109.143 85.0102 109.788L87.9819 111.62L87.3591 112.63L84.4456 110.833C84.1602 110.657 83.9112 110.59 83.6985 110.631C83.4848 110.667 83.2917 110.826 83.1191 111.105C82.868 111.513 82.8652 111.93 83.1107 112.356L86.3109 114.33L85.6882 115.34L81.1912 112.567L81.778 111.615ZM86.2203 109.369C85.5276 108.942 85.0712 108.439 84.851 107.859C84.628 107.278 84.6831 106.718 85.0163 106.177C85.3101 105.701 85.7139 105.418 86.2275 105.329L83.9249 103.91L84.5477 102.9L90.9316 106.836L90.3678 107.75L89.8716 107.513C90.0511 108.041 89.9854 108.557 89.6744 109.061C89.3498 109.588 88.8747 109.884 88.2492 109.949C87.6253 110.012 86.9491 109.819 86.2203 109.369ZM86.9304 108.413C87.3876 108.695 87.7988 108.828 88.1641 108.812C88.5284 108.792 88.8105 108.62 89.0104 108.296C89.2649 107.883 89.2669 107.467 89.0163 107.049L87.0961 105.865C86.6214 105.829 86.2568 106.017 86.0022 106.43C85.8006 106.757 85.7754 107.089 85.9265 107.427C86.0748 107.763 86.4095 108.092 86.9304 108.413ZM93.5507 102.588L92.928 103.598L88.431 100.826L89.0537 99.8156L93.5507 102.588ZM87.2246 100.168C87.0695 100.072 86.9705 99.9441 86.9278 99.7839C86.8868 99.621 86.9227 99.448 87.0354 99.2652C87.1482 99.0823 87.2866 98.9726 87.4506 98.936C87.6146 98.8995 87.7742 98.9291 87.9294 99.0248C88.0818 99.1187 88.1785 99.2472 88.2195 99.4102C88.2577 99.5714 88.2205 99.7435 88.1077 99.9264C87.995 100.109 87.858 100.22 87.6967 100.258C87.5344 100.292 87.377 100.262 87.2246 100.168ZM90.312 97.7749L90.8495 98.0661C90.6528 97.4859 90.721 96.9256 91.0541 96.3853C91.6316 95.4488 92.4616 95.3028 93.5442 95.9473L96.5159 97.7797L95.8931 98.7897L92.9796 96.9932C92.6942 96.8172 92.4452 96.7497 92.2325 96.7907C92.0188 96.8272 91.8257 96.9853 91.6531 97.2652C91.402 97.6725 91.3992 98.0895 91.6447 98.5162L94.8449 100.49L94.2222 101.5L89.7252 98.7266L90.312 97.7749ZM97.3718 96.3915L93.6229 94.0799L93.2001 94.7657L92.4519 94.3044L92.8748 93.6186L92.4633 93.3649C91.9646 93.0574 91.6649 92.6814 91.5642 92.2369C91.4635 91.7923 91.5669 91.3207 91.8744 90.822C91.9838 90.6446 92.1249 90.4716 92.2978 90.3028L93.0721 90.8147C92.9816 90.9119 92.8911 91.0339 92.8005 91.1807C92.5032 91.6629 92.6026 92.0568 93.0986 92.3627L93.4976 92.6087L94.0614 91.6943L94.8095 92.1556L94.2457 93.07L97.9946 95.3816L97.3718 96.3915ZM96.6066 92.5065C96.166 92.2349 95.8236 91.9033 95.5794 91.5117C95.3323 91.1185 95.212 90.7058 95.2184 90.2738C95.2219 89.84 95.3502 89.4181 95.603 89.008C95.9772 88.4012 96.4758 88.0298 97.0988 87.8939C97.7236 87.7552 98.3682 87.8697 99.0325 88.2373L99.272 88.3792C99.7153 88.6525 100.059 88.9828 100.302 89.3698C100.547 89.7541 100.667 90.1645 100.661 90.601C100.658 91.0348 100.528 91.4595 100.271 91.8751C99.8802 92.5096 99.3561 92.8882 98.6991 93.0109C98.0411 93.1291 97.3603 92.9712 96.6565 92.5373L96.6066 92.5065ZM97.3166 91.5504C97.7793 91.8357 98.2013 91.9639 98.5824 91.935C98.9607 91.9045 99.255 91.7188 99.4651 91.3779C99.6753 91.0371 99.7054 90.6905 99.5556 90.3381C99.4075 89.9829 99.0771 89.6472 98.5645 89.3312C98.1101 89.051 97.6893 88.9272 97.302 88.9599C96.9164 88.9899 96.6202 89.1725 96.4135 89.5078C96.2102 89.8375 96.1803 90.1805 96.324 90.5367C96.4648 90.8913 96.7957 91.2292 97.3166 91.5504ZM99.8789 84.3249C99.7747 84.4442 99.6791 84.5745 99.5919 84.7158C99.3066 85.1786 99.2918 85.5996 99.5473 85.979L102.623 87.8755L102 88.8854L97.5031 86.1125L98.0977 85.1483L98.616 85.4334C98.3756 84.9487 98.3887 84.4902 98.6553 84.058C98.7441 83.9139 98.837 83.8067 98.9339 83.7364L99.8789 84.3249ZM99.9352 82.1683L100.423 82.4288C100.249 81.8857 100.331 81.3398 100.67 80.7912C101.04 80.1899 101.524 79.9203 102.121 79.9822C101.862 79.3716 101.916 78.7699 102.282 78.1769C102.587 77.6809 102.952 77.397 103.375 77.3251C103.799 77.2504 104.281 77.3751 104.819 77.6993L107.774 79.5215L107.151 80.5314L104.225 78.7272C103.94 78.5513 103.692 78.4846 103.482 78.5273C103.273 78.57 103.079 78.7354 102.901 79.0236C102.759 79.2535 102.705 79.4804 102.74 79.7041C102.773 79.9234 102.871 80.1236 103.035 80.3048L106.121 82.2022L105.498 83.2122L102.539 81.3875C102.001 81.075 101.57 81.182 101.246 81.7085C100.996 82.113 100.984 82.5014 101.21 82.8738L104.468 84.883L103.845 85.8929L99.3483 83.12L99.9352 82.1683ZM110.07 75.7975C109.957 75.7889 109.793 75.7414 109.579 75.655C109.716 76.1832 109.641 76.68 109.354 77.1455C109.075 77.5971 108.719 77.8862 108.286 78.0127C107.852 78.1392 107.445 78.0854 107.066 77.8514C106.586 77.5558 106.329 77.1521 106.292 76.6402C106.255 76.1239 106.441 75.5346 106.849 74.8724L107.231 74.2531L106.936 74.0712C106.703 73.9277 106.477 73.8783 106.258 73.9231C106.037 73.9662 105.844 74.1208 105.68 74.3868C105.538 74.6167 105.48 74.841 105.506 75.0596C105.529 75.2765 105.629 75.4397 105.806 75.549L105.184 76.559C104.937 76.4069 104.758 76.1834 104.645 75.8883C104.53 75.5916 104.497 75.2657 104.548 74.9107C104.6 74.5529 104.733 74.2008 104.947 73.8545C105.271 73.328 105.663 72.9902 106.122 72.8411C106.579 72.6904 107.049 72.7586 107.534 73.0458L109.562 74.2965C109.966 74.5459 110.324 74.6882 110.635 74.7232L110.706 74.7668L110.07 75.7975ZM108.659 76.4587C108.782 76.2592 108.849 76.0423 108.859 75.8079C108.872 75.5708 108.823 75.3575 108.715 75.168L107.867 74.6452L107.531 75.1897C107.3 75.5638 107.192 75.8852 107.206 76.1539C107.22 76.4226 107.346 76.6304 107.585 76.7773C107.779 76.8969 107.973 76.9289 108.168 76.8732C108.362 76.813 108.525 76.6749 108.659 76.4587ZM106.443 69.1669L107.536 69.8409L108.026 69.0471L108.774 69.5084L108.284 70.3022L110.795 71.8501C110.967 71.9561 111.112 71.9997 111.23 71.981C111.348 71.9579 111.46 71.859 111.568 71.6845C111.64 71.5681 111.699 71.4418 111.744 71.3056L112.526 71.7874C112.448 72.0567 112.343 72.298 112.211 72.5113C111.733 73.2871 111.066 73.4111 110.209 72.8832L107.662 71.3122L107.206 72.052L106.457 71.5907L106.914 70.8509L105.821 70.1769L106.443 69.1669ZM113.663 69.9705L113.041 70.9804L108.544 68.2075L109.166 67.1976L113.663 69.9705ZM107.337 67.5497C107.182 67.4541 107.083 67.3261 107.04 67.1659C106.999 67.003 107.035 66.8301 107.148 66.6472C107.261 66.4643 107.399 66.3546 107.563 66.3181C107.727 66.2815 107.887 66.3111 108.042 66.4068C108.194 66.5008 108.291 66.6292 108.332 66.7922C108.37 66.9534 108.333 67.1255 108.22 67.3084C108.108 67.4913 107.971 67.6018 107.809 67.6401C107.647 67.6738 107.49 67.6437 107.337 67.5497ZM111.937 67.644C111.496 67.3724 111.154 67.0408 110.91 66.6492C110.663 66.256 110.542 65.8433 110.549 65.4113C110.552 64.9775 110.681 64.5556 110.933 64.1455C111.308 63.5387 111.806 63.1674 112.429 63.0314C113.054 62.8927 113.699 63.0072 114.363 63.3748L114.602 63.5167C115.046 63.7901 115.389 64.1203 115.632 64.5073C115.877 64.8916 115.997 65.302 115.992 65.7386C115.988 66.1723 115.858 66.597 115.602 67.0126C115.211 67.6472 114.687 68.0258 114.03 68.1484C113.372 68.2666 112.691 68.1088 111.987 67.6748L111.937 67.644ZM112.647 66.6879C113.11 66.9732 113.532 67.1014 113.913 67.0726C114.291 67.042 114.585 66.8563 114.796 66.5155C115.006 66.1747 115.036 65.828 114.886 65.4756C114.738 65.1204 114.408 64.7848 113.895 64.4687C113.441 64.1885 113.02 64.0648 112.632 64.0975C112.247 64.1274 111.951 64.31 111.744 64.6453C111.541 64.975 111.511 65.318 111.654 65.6743C111.795 66.0288 112.126 66.3667 112.647 66.6879ZM113.413 60.3107L113.95 60.602C113.753 60.0218 113.822 59.4615 114.155 58.9212C114.732 57.9846 115.562 57.8387 116.645 58.4832L119.617 60.3156L118.994 61.3256L116.08 59.5291C115.795 59.3531 115.546 59.2856 115.333 59.3266C115.12 59.363 114.926 59.5212 114.754 59.8011C114.503 60.2084 114.5 60.6254 114.745 61.0521L117.946 63.0255L117.323 64.0354L112.826 61.2625L113.413 60.3107Z" fill="black"/>
<path d="M174.026 207H172.796V199.891H174.026V207ZM176.531 201.717L176.565 202.327C176.956 201.855 177.469 201.619 178.104 201.619C179.204 201.619 179.764 202.249 179.783 203.509V207H178.597V203.577C178.597 203.242 178.523 202.994 178.377 202.835C178.234 202.672 177.998 202.591 177.669 202.591C177.19 202.591 176.834 202.807 176.6 203.24V207H175.413V201.717H176.531ZM181.414 207V202.596H180.608V201.717H181.414V201.233C181.414 200.647 181.577 200.195 181.902 199.876C182.228 199.557 182.684 199.397 183.27 199.397C183.478 199.397 183.699 199.427 183.934 199.485L183.904 200.413C183.774 200.387 183.623 200.374 183.45 200.374C182.884 200.374 182.601 200.665 182.601 201.248V201.717H183.675V202.596H182.601V207H181.414ZM184.319 204.31C184.319 203.792 184.422 203.326 184.627 202.913C184.832 202.496 185.12 202.177 185.491 201.956C185.862 201.731 186.289 201.619 186.771 201.619C187.483 201.619 188.061 201.849 188.504 202.308C188.95 202.767 189.191 203.375 189.227 204.134L189.231 204.412C189.231 204.933 189.131 205.398 188.929 205.809C188.73 206.219 188.444 206.536 188.069 206.761C187.698 206.985 187.269 207.098 186.78 207.098C186.035 207.098 185.438 206.85 184.988 206.355C184.542 205.857 184.319 205.195 184.319 204.368V204.31ZM185.506 204.412C185.506 204.956 185.618 205.382 185.843 205.691C186.067 205.997 186.38 206.15 186.78 206.15C187.181 206.15 187.492 205.994 187.713 205.682C187.938 205.369 188.05 204.912 188.05 204.31C188.05 203.776 187.934 203.353 187.703 203.04C187.475 202.728 187.164 202.571 186.771 202.571C186.383 202.571 186.076 202.726 185.848 203.035C185.62 203.341 185.506 203.8 185.506 204.412ZM193.001 202.801C192.845 202.775 192.684 202.762 192.518 202.762C191.974 202.762 191.608 202.97 191.419 203.387V207H190.232V201.717H191.365L191.395 202.308C191.681 201.849 192.078 201.619 192.586 201.619C192.755 201.619 192.895 201.642 193.006 201.688L193.001 202.801ZM194.866 201.717L194.9 202.269C195.271 201.836 195.779 201.619 196.424 201.619C197.13 201.619 197.614 201.889 197.874 202.43C198.258 201.889 198.799 201.619 199.495 201.619C200.078 201.619 200.511 201.78 200.794 202.103C201.08 202.425 201.227 202.9 201.233 203.528V207H200.047V203.562C200.047 203.227 199.974 202.981 199.827 202.825C199.681 202.669 199.438 202.591 199.1 202.591C198.829 202.591 198.608 202.664 198.436 202.811C198.266 202.954 198.147 203.143 198.079 203.377L198.084 207H196.897V203.523C196.881 202.902 196.564 202.591 195.945 202.591C195.47 202.591 195.133 202.785 194.935 203.172V207H193.748V201.717H194.866ZM205.608 207C205.556 206.899 205.511 206.735 205.472 206.507C205.094 206.901 204.632 207.098 204.085 207.098C203.554 207.098 203.121 206.946 202.786 206.644C202.451 206.341 202.283 205.966 202.283 205.521C202.283 204.957 202.492 204.526 202.908 204.227C203.328 203.924 203.927 203.772 204.705 203.772H205.433V203.426C205.433 203.152 205.356 202.934 205.203 202.771C205.05 202.605 204.817 202.522 204.505 202.522C204.235 202.522 204.013 202.591 203.841 202.728C203.668 202.861 203.582 203.032 203.582 203.24H202.396C202.396 202.951 202.492 202.68 202.684 202.43C202.876 202.176 203.136 201.977 203.465 201.834C203.797 201.691 204.166 201.619 204.573 201.619C205.192 201.619 205.685 201.775 206.053 202.088C206.421 202.397 206.609 202.833 206.619 203.396V205.779C206.619 206.255 206.686 206.634 206.819 206.917V207H205.608ZM204.305 206.146C204.539 206.146 204.759 206.089 204.964 205.975C205.172 205.861 205.328 205.708 205.433 205.516V204.52H204.793C204.354 204.52 204.023 204.596 203.802 204.749C203.58 204.902 203.47 205.118 203.47 205.398C203.47 205.626 203.545 205.809 203.694 205.945C203.847 206.079 204.051 206.146 204.305 206.146ZM209.349 200.433V201.717H210.281V202.596H209.349V205.545C209.349 205.747 209.388 205.893 209.466 205.984C209.547 206.072 209.69 206.116 209.896 206.116C210.032 206.116 210.171 206.1 210.311 206.067V206.985C210.04 207.06 209.78 207.098 209.529 207.098C208.618 207.098 208.162 206.595 208.162 205.589V202.596H207.293V201.717H208.162V200.433H209.349ZM212.454 207H211.268V201.717H212.454V207ZM211.194 200.345C211.194 200.162 211.251 200.011 211.365 199.891C211.482 199.77 211.648 199.71 211.863 199.71C212.078 199.71 212.244 199.77 212.361 199.891C212.479 200.011 212.537 200.162 212.537 200.345C212.537 200.524 212.479 200.674 212.361 200.794C212.244 200.911 212.078 200.97 211.863 200.97C211.648 200.97 211.482 200.911 211.365 200.794C211.251 200.674 211.194 200.524 211.194 200.345ZM213.528 204.31C213.528 203.792 213.631 203.326 213.836 202.913C214.041 202.496 214.329 202.177 214.7 201.956C215.071 201.731 215.498 201.619 215.979 201.619C216.692 201.619 217.27 201.849 217.713 202.308C218.159 202.767 218.4 203.375 218.436 204.134L218.44 204.412C218.44 204.933 218.34 205.398 218.138 205.809C217.939 206.219 217.653 206.536 217.278 206.761C216.907 206.985 216.478 207.098 215.989 207.098C215.244 207.098 214.646 206.85 214.197 206.355C213.751 205.857 213.528 205.195 213.528 204.368V204.31ZM214.715 204.412C214.715 204.956 214.827 205.382 215.052 205.691C215.276 205.997 215.589 206.15 215.989 206.15C216.39 206.15 216.701 205.994 216.922 205.682C217.146 205.369 217.259 204.912 217.259 204.31C217.259 203.776 217.143 203.353 216.912 203.04C216.684 202.728 216.373 202.571 215.979 202.571C215.592 202.571 215.285 202.726 215.057 203.035C214.829 203.341 214.715 203.8 214.715 204.412ZM220.545 201.717L220.579 202.327C220.97 201.855 221.482 201.619 222.117 201.619C223.217 201.619 223.777 202.249 223.797 203.509V207H222.61V203.577C222.61 203.242 222.537 202.994 222.391 202.835C222.247 202.672 222.011 202.591 221.683 202.591C221.204 202.591 220.848 202.807 220.613 203.24V207H219.427V201.717H220.545Z" fill="black"/>
</svg>
