<svg width="401" height="242" viewBox="0 0 401 242" fill="none" xmlns="http://www.w3.org/2000/svg">
<g clip-path="url(#clip0)">
<line y1="236.5" x2="401" y2="236.5" stroke="black"/>
<line x1="1" y1="150.5" x2="402" y2="150.5" stroke="black"/>
<line y1="70.5" x2="401" y2="70.5" stroke="black"/>
<path d="M154.377 30.2227C154.291 31.1328 153.955 31.8438 153.369 32.3555C152.783 32.8633 152.004 33.1172 151.031 33.1172C150.352 33.1172 149.752 32.957 149.232 32.6367C148.717 32.3125 148.318 31.8535 148.037 31.2598C147.756 30.666 147.609 29.9766 147.598 29.1914V28.3945C147.598 27.5898 147.74 26.8809 148.025 26.2676C148.311 25.6543 148.719 25.1816 149.25 24.8496C149.785 24.5176 150.402 24.3516 151.102 24.3516C152.043 24.3516 152.801 24.6074 153.375 25.1191C153.949 25.6309 154.283 26.3535 154.377 27.2871H152.9C152.83 26.6738 152.65 26.2324 152.361 25.9629C152.076 25.6895 151.656 25.5527 151.102 25.5527C150.457 25.5527 149.961 25.7891 149.613 26.2617C149.27 26.7305 149.094 27.4199 149.086 28.3301V29.0859C149.086 30.0078 149.25 30.7109 149.578 31.1953C149.91 31.6797 150.395 31.9219 151.031 31.9219C151.613 31.9219 152.051 31.791 152.344 31.5293C152.637 31.2676 152.822 30.832 152.9 30.2227H154.377ZM155.303 29.7715C155.303 29.1504 155.426 28.5918 155.672 28.0957C155.918 27.5957 156.264 27.2129 156.709 26.9473C157.154 26.6777 157.666 26.543 158.244 26.543C159.1 26.543 159.793 26.8184 160.324 27.3691C160.859 27.9199 161.148 28.6504 161.191 29.5605L161.197 29.8945C161.197 30.5195 161.076 31.0781 160.834 31.5703C160.596 32.0625 160.252 32.4434 159.803 32.7129C159.357 32.9824 158.842 33.1172 158.256 33.1172C157.361 33.1172 156.645 32.8203 156.105 32.2266C155.57 31.6289 155.303 30.834 155.303 29.8418V29.7715ZM156.727 29.8945C156.727 30.5469 156.861 31.0586 157.131 31.4297C157.4 31.7969 157.775 31.9805 158.256 31.9805C158.736 31.9805 159.109 31.793 159.375 31.418C159.645 31.043 159.779 30.4941 159.779 29.7715C159.779 29.1309 159.641 28.623 159.363 28.248C159.09 27.873 158.717 27.6855 158.244 27.6855C157.779 27.6855 157.41 27.8711 157.137 28.2422C156.863 28.6094 156.727 29.1602 156.727 29.8945ZM163.723 26.6602L163.764 27.3926C164.232 26.8262 164.848 26.543 165.609 26.543C166.93 26.543 167.602 27.2988 167.625 28.8105V33H166.201V28.8926C166.201 28.4902 166.113 28.1934 165.938 28.002C165.766 27.8066 165.482 27.709 165.088 27.709C164.514 27.709 164.086 27.9688 163.805 28.4883V33H162.381V26.6602H163.723ZM170.865 25.1191V26.6602H171.984V27.7148H170.865V31.2539C170.865 31.4961 170.912 31.6719 171.006 31.7812C171.104 31.8867 171.275 31.9395 171.521 31.9395C171.686 31.9395 171.852 31.9199 172.02 31.8809V32.9824C171.695 33.0723 171.383 33.1172 171.082 33.1172C169.988 33.1172 169.441 32.5137 169.441 31.3066V27.7148H168.398V26.6602H169.441V25.1191H170.865ZM176.396 27.9609C176.209 27.9297 176.016 27.9141 175.816 27.9141C175.164 27.9141 174.725 28.1641 174.498 28.6641V33H173.074V26.6602H174.434L174.469 27.3691C174.812 26.8184 175.289 26.543 175.898 26.543C176.102 26.543 176.27 26.5703 176.402 26.625L176.396 27.9609ZM176.818 29.7715C176.818 29.1504 176.941 28.5918 177.188 28.0957C177.434 27.5957 177.779 27.2129 178.225 26.9473C178.67 26.6777 179.182 26.543 179.76 26.543C180.615 26.543 181.309 26.8184 181.84 27.3691C182.375 27.9199 182.664 28.6504 182.707 29.5605L182.713 29.8945C182.713 30.5195 182.592 31.0781 182.35 31.5703C182.111 32.0625 181.768 32.4434 181.318 32.7129C180.873 32.9824 180.357 33.1172 179.771 33.1172C178.877 33.1172 178.16 32.8203 177.621 32.2266C177.086 31.6289 176.818 30.834 176.818 29.8418V29.7715ZM178.242 29.8945C178.242 30.5469 178.377 31.0586 178.646 31.4297C178.916 31.7969 179.291 31.9805 179.771 31.9805C180.252 31.9805 180.625 31.793 180.891 31.418C181.16 31.043 181.295 30.4941 181.295 29.7715C181.295 29.1309 181.156 28.623 180.879 28.248C180.605 27.873 180.232 27.6855 179.76 27.6855C179.295 27.6855 178.926 27.8711 178.652 28.2422C178.379 28.6094 178.242 29.1602 178.242 29.8945ZM185.432 33H184.008V24H185.432V33ZM194.889 31.0137H191.584L190.893 33H189.352L192.574 24.4688H193.904L197.133 33H195.586L194.889 31.0137ZM192 29.8184H194.473L193.236 26.2793L192 29.8184ZM201.287 27.9609C201.1 27.9297 200.906 27.9141 200.707 27.9141C200.055 27.9141 199.615 28.1641 199.389 28.6641V33H197.965V26.6602H199.324L199.359 27.3691C199.703 26.8184 200.18 26.543 200.789 26.543C200.992 26.543 201.16 26.5703 201.293 26.625L201.287 27.9609ZM204.674 31.9805C205.029 31.9805 205.324 31.877 205.559 31.6699C205.793 31.4629 205.918 31.207 205.934 30.9023H207.275C207.26 31.2969 207.137 31.666 206.906 32.0098C206.676 32.3496 206.363 32.6191 205.969 32.8184C205.574 33.0176 205.148 33.1172 204.691 33.1172C203.805 33.1172 203.102 32.8301 202.582 32.2559C202.062 31.6816 201.803 30.8887 201.803 29.877V29.7305C201.803 28.7656 202.061 27.9941 202.576 27.416C203.092 26.834 203.795 26.543 204.686 26.543C205.439 26.543 206.053 26.7637 206.525 27.2051C207.002 27.6426 207.252 28.2188 207.275 28.9336H205.934C205.918 28.5703 205.793 28.2715 205.559 28.0371C205.328 27.8027 205.033 27.6855 204.674 27.6855C204.213 27.6855 203.857 27.8535 203.607 28.1895C203.357 28.5215 203.23 29.0273 203.227 29.707V29.9355C203.227 30.623 203.35 31.1367 203.596 31.4766C203.846 31.8125 204.205 31.9805 204.674 31.9805ZM209.754 27.3516C210.219 26.8125 210.807 26.543 211.518 26.543C212.869 26.543 213.555 27.3145 213.574 28.8574V33H212.15V28.9102C212.15 28.4727 212.055 28.1641 211.863 27.9844C211.676 27.8008 211.398 27.709 211.031 27.709C210.461 27.709 210.035 27.9629 209.754 28.4707V33H208.33V24H209.754V27.3516ZM216.533 33H215.109V26.6602H216.533V33ZM215.021 25.0137C215.021 24.7949 215.09 24.6133 215.227 24.4688C215.367 24.3242 215.566 24.252 215.824 24.252C216.082 24.252 216.281 24.3242 216.422 24.4688C216.562 24.6133 216.633 24.7949 216.633 25.0137C216.633 25.2285 216.562 25.4082 216.422 25.5527C216.281 25.6934 216.082 25.7637 215.824 25.7637C215.566 25.7637 215.367 25.6934 215.227 25.5527C215.09 25.4082 215.021 25.2285 215.021 25.0137ZM219.873 25.1191V26.6602H220.992V27.7148H219.873V31.2539C219.873 31.4961 219.92 31.6719 220.014 31.7812C220.111 31.8867 220.283 31.9395 220.529 31.9395C220.693 31.9395 220.859 31.9199 221.027 31.8809V32.9824C220.703 33.0723 220.391 33.1172 220.09 33.1172C218.996 33.1172 218.449 32.5137 218.449 31.3066V27.7148H217.406V26.6602H218.449V25.1191H219.873ZM224.877 33.1172C223.975 33.1172 223.242 32.834 222.68 32.2676C222.121 31.6973 221.842 30.9395 221.842 29.9941V29.8184C221.842 29.1855 221.963 28.6211 222.205 28.125C222.451 27.625 222.795 27.2363 223.236 26.959C223.678 26.6816 224.17 26.543 224.713 26.543C225.576 26.543 226.242 26.8184 226.711 27.3691C227.184 27.9199 227.42 28.6992 227.42 29.707V30.2812H223.277C223.32 30.8047 223.494 31.2188 223.799 31.5234C224.107 31.8281 224.494 31.9805 224.959 31.9805C225.611 31.9805 226.143 31.7168 226.553 31.1895L227.32 31.9219C227.066 32.3008 226.727 32.5957 226.301 32.8066C225.879 33.0137 225.404 33.1172 224.877 33.1172ZM224.707 27.6855C224.316 27.6855 224 27.8223 223.758 28.0957C223.52 28.3691 223.367 28.75 223.301 29.2383H226.014V29.1328C225.982 28.6562 225.855 28.2969 225.633 28.0547C225.41 27.8086 225.102 27.6855 224.707 27.6855ZM231.135 31.9805C231.49 31.9805 231.785 31.877 232.02 31.6699C232.254 31.4629 232.379 31.207 232.395 30.9023H233.736C233.721 31.2969 233.598 31.666 233.367 32.0098C233.137 32.3496 232.824 32.6191 232.43 32.8184C232.035 33.0176 231.609 33.1172 231.152 33.1172C230.266 33.1172 229.562 32.8301 229.043 32.2559C228.523 31.6816 228.264 30.8887 228.264 29.877V29.7305C228.264 28.7656 228.521 27.9941 229.037 27.416C229.553 26.834 230.256 26.543 231.146 26.543C231.9 26.543 232.514 26.7637 232.986 27.2051C233.463 27.6426 233.713 28.2188 233.736 28.9336H232.395C232.379 28.5703 232.254 28.2715 232.02 28.0371C231.789 27.8027 231.494 27.6855 231.135 27.6855C230.674 27.6855 230.318 27.8535 230.068 28.1895C229.818 28.5215 229.691 29.0273 229.688 29.707V29.9355C229.688 30.623 229.811 31.1367 230.057 31.4766C230.307 31.8125 230.666 31.9805 231.135 31.9805ZM236.596 25.1191V26.6602H237.715V27.7148H236.596V31.2539C236.596 31.4961 236.643 31.6719 236.736 31.7812C236.834 31.8867 237.006 31.9395 237.252 31.9395C237.416 31.9395 237.582 31.9199 237.75 31.8809V32.9824C237.426 33.0723 237.113 33.1172 236.812 33.1172C235.719 33.1172 235.172 32.5137 235.172 31.3066V27.7148H234.129V26.6602H235.172V25.1191H236.596ZM242.648 32.3789C242.23 32.8711 241.637 33.1172 240.867 33.1172C240.18 33.1172 239.658 32.916 239.303 32.5137C238.951 32.1113 238.775 31.5293 238.775 30.7676V26.6602H240.199V30.75C240.199 31.5547 240.533 31.957 241.201 31.957C241.893 31.957 242.359 31.709 242.602 31.2129V26.6602H244.025V33H242.684L242.648 32.3789ZM248.795 27.9609C248.607 27.9297 248.414 27.9141 248.215 27.9141C247.562 27.9141 247.123 28.1641 246.896 28.6641V33H245.473V26.6602H246.832L246.867 27.3691C247.211 26.8184 247.688 26.543 248.297 26.543C248.5 26.543 248.668 26.5703 248.801 26.625L248.795 27.9609ZM252.369 33.1172C251.467 33.1172 250.734 32.834 250.172 32.2676C249.613 31.6973 249.334 30.9395 249.334 29.9941V29.8184C249.334 29.1855 249.455 28.6211 249.697 28.125C249.943 27.625 250.287 27.2363 250.729 26.959C251.17 26.6816 251.662 26.543 252.205 26.543C253.068 26.543 253.734 26.8184 254.203 27.3691C254.676 27.9199 254.912 28.6992 254.912 29.707V30.2812H250.77C250.812 30.8047 250.986 31.2188 251.291 31.5234C251.6 31.8281 251.986 31.9805 252.451 31.9805C253.104 31.9805 253.635 31.7168 254.045 31.1895L254.812 31.9219C254.559 32.3008 254.219 32.5957 253.793 32.8066C253.371 33.0137 252.896 33.1172 252.369 33.1172ZM252.199 27.6855C251.809 27.6855 251.492 27.8223 251.25 28.0957C251.012 28.3691 250.859 28.75 250.793 29.2383H253.506V29.1328C253.475 28.6562 253.348 28.2969 253.125 28.0547C252.902 27.8086 252.594 27.6855 252.199 27.6855Z" fill="black"/>
<rect x="102.5" y="11.5" width="196" height="35" stroke="black"/>
<rect x="45.5" y="92.5" width="113" height="35" stroke="black"/>
<path d="M71.8672 114V105.469H74.3867C75.1406 105.469 75.8086 105.637 76.3906 105.973C76.9766 106.309 77.4297 106.785 77.75 107.402C78.0703 108.02 78.2305 108.727 78.2305 109.523V109.951C78.2305 110.76 78.0684 111.471 77.7441 112.084C77.4238 112.697 76.9648 113.17 76.3672 113.502C75.7734 113.834 75.0918 114 74.3223 114H71.8672ZM73.3496 106.664V112.816H74.3164C75.0938 112.816 75.6895 112.574 76.1035 112.09C76.5215 111.602 76.7344 110.902 76.7422 109.992V109.518C76.7422 108.592 76.541 107.885 76.1387 107.396C75.7363 106.908 75.1523 106.664 74.3867 106.664H73.3496ZM82.3613 114.117C81.459 114.117 80.7266 113.834 80.1641 113.268C79.6055 112.697 79.3262 111.939 79.3262 110.994V110.818C79.3262 110.186 79.4473 109.621 79.6895 109.125C79.9355 108.625 80.2793 108.236 80.7207 107.959C81.1621 107.682 81.6543 107.543 82.1973 107.543C83.0605 107.543 83.7266 107.818 84.1953 108.369C84.668 108.92 84.9043 109.699 84.9043 110.707V111.281H80.7617C80.8047 111.805 80.9785 112.219 81.2832 112.523C81.5918 112.828 81.9785 112.98 82.4434 112.98C83.0957 112.98 83.627 112.717 84.0371 112.189L84.8047 112.922C84.5508 113.301 84.2109 113.596 83.7852 113.807C83.3633 114.014 82.8887 114.117 82.3613 114.117ZM82.1914 108.686C81.8008 108.686 81.4844 108.822 81.2422 109.096C81.0039 109.369 80.8516 109.75 80.7852 110.238H83.498V110.133C83.4668 109.656 83.3398 109.297 83.1172 109.055C82.8945 108.809 82.5859 108.686 82.1914 108.686ZM87.5293 114H86.1055V105H87.5293V114ZM90.5996 114H89.1758V107.66H90.5996V114ZM89.0879 106.014C89.0879 105.795 89.1562 105.613 89.293 105.469C89.4336 105.324 89.6328 105.252 89.8906 105.252C90.1484 105.252 90.3477 105.324 90.4883 105.469C90.6289 105.613 90.6992 105.795 90.6992 106.014C90.6992 106.229 90.6289 106.408 90.4883 106.553C90.3477 106.693 90.1484 106.764 89.8906 106.764C89.6328 106.764 89.4336 106.693 89.293 106.553C89.1562 106.408 89.0879 106.229 89.0879 106.014ZM97.7188 110.895C97.7188 111.879 97.498 112.662 97.0566 113.244C96.6191 113.826 96.0156 114.117 95.2461 114.117C94.5039 114.117 93.9258 113.85 93.5117 113.314L93.4414 114H92.1523V105H93.5762V108.27C93.9863 107.785 94.5391 107.543 95.2344 107.543C96.0078 107.543 96.6152 107.83 97.0566 108.404C97.498 108.979 97.7188 109.781 97.7188 110.812V110.895ZM96.2949 110.771C96.2949 110.084 96.1738 109.568 95.9316 109.225C95.6895 108.881 95.3379 108.709 94.877 108.709C94.2598 108.709 93.8262 108.979 93.5762 109.518V112.131C93.8301 112.682 94.2676 112.957 94.8887 112.957C95.334 112.957 95.6777 112.791 95.9199 112.459C96.1621 112.127 96.2871 111.625 96.2949 110.953V110.771ZM101.709 114.117C100.807 114.117 100.074 113.834 99.5117 113.268C98.9531 112.697 98.6738 111.939 98.6738 110.994V110.818C98.6738 110.186 98.7949 109.621 99.0371 109.125C99.2832 108.625 99.627 108.236 100.068 107.959C100.51 107.682 101.002 107.543 101.545 107.543C102.408 107.543 103.074 107.818 103.543 108.369C104.016 108.92 104.252 109.699 104.252 110.707V111.281H100.109C100.152 111.805 100.326 112.219 100.631 112.523C100.939 112.828 101.326 112.98 101.791 112.98C102.443 112.98 102.975 112.717 103.385 112.189L104.152 112.922C103.898 113.301 103.559 113.596 103.133 113.807C102.711 114.014 102.236 114.117 101.709 114.117ZM101.539 108.686C101.148 108.686 100.832 108.822 100.59 109.096C100.352 109.369 100.199 109.75 100.133 110.238H102.846V110.133C102.814 109.656 102.688 109.297 102.465 109.055C102.242 108.809 101.934 108.686 101.539 108.686ZM108.682 108.961C108.494 108.93 108.301 108.914 108.102 108.914C107.449 108.914 107.01 109.164 106.783 109.664V114H105.359V107.66H106.719L106.754 108.369C107.098 107.818 107.574 107.543 108.184 107.543C108.387 107.543 108.555 107.57 108.688 107.625L108.682 108.961ZM113.193 114C113.131 113.879 113.076 113.682 113.029 113.408C112.576 113.881 112.021 114.117 111.365 114.117C110.729 114.117 110.209 113.936 109.807 113.572C109.404 113.209 109.203 112.76 109.203 112.225C109.203 111.549 109.453 111.031 109.953 110.672C110.457 110.309 111.176 110.127 112.109 110.127H112.982V109.711C112.982 109.383 112.891 109.121 112.707 108.926C112.523 108.727 112.244 108.627 111.869 108.627C111.545 108.627 111.279 108.709 111.072 108.873C110.865 109.033 110.762 109.238 110.762 109.488H109.338C109.338 109.141 109.453 108.816 109.684 108.516C109.914 108.211 110.227 107.973 110.621 107.801C111.02 107.629 111.463 107.543 111.951 107.543C112.693 107.543 113.285 107.73 113.727 108.105C114.168 108.477 114.395 109 114.406 109.676V112.535C114.406 113.105 114.486 113.561 114.646 113.9V114H113.193ZM111.629 112.975C111.91 112.975 112.174 112.906 112.42 112.77C112.67 112.633 112.857 112.449 112.982 112.219V111.023H112.215C111.688 111.023 111.291 111.115 111.025 111.299C110.76 111.482 110.627 111.742 110.627 112.078C110.627 112.352 110.717 112.57 110.896 112.734C111.08 112.895 111.324 112.975 111.629 112.975ZM117.682 106.119V107.66H118.801V108.715H117.682V112.254C117.682 112.496 117.729 112.672 117.822 112.781C117.92 112.887 118.092 112.939 118.338 112.939C118.502 112.939 118.668 112.92 118.836 112.881V113.982C118.512 114.072 118.199 114.117 117.898 114.117C116.805 114.117 116.258 113.514 116.258 112.307V108.715H115.215V107.66H116.258V106.119H117.682ZM121.408 114H119.984V107.66H121.408V114ZM119.896 106.014C119.896 105.795 119.965 105.613 120.102 105.469C120.242 105.324 120.441 105.252 120.699 105.252C120.957 105.252 121.156 105.324 121.297 105.469C121.438 105.613 121.508 105.795 121.508 106.014C121.508 106.229 121.438 106.408 121.297 106.553C121.156 106.693 120.957 106.764 120.699 106.764C120.441 106.764 120.242 106.693 120.102 106.553C119.965 106.408 119.896 106.229 119.896 106.014ZM125.199 112.195L126.541 107.66H128.012L125.814 114H124.578L122.363 107.66H123.84L125.199 112.195ZM131.615 114.117C130.713 114.117 129.98 113.834 129.418 113.268C128.859 112.697 128.58 111.939 128.58 110.994V110.818C128.58 110.186 128.701 109.621 128.943 109.125C129.189 108.625 129.533 108.236 129.975 107.959C130.416 107.682 130.908 107.543 131.451 107.543C132.314 107.543 132.98 107.818 133.449 108.369C133.922 108.92 134.158 109.699 134.158 110.707V111.281H130.016C130.059 111.805 130.232 112.219 130.537 112.523C130.846 112.828 131.232 112.98 131.697 112.98C132.35 112.98 132.881 112.717 133.291 112.189L134.059 112.922C133.805 113.301 133.465 113.596 133.039 113.807C132.617 114.014 132.143 114.117 131.615 114.117ZM131.445 108.686C131.055 108.686 130.738 108.822 130.496 109.096C130.258 109.369 130.105 109.75 130.039 110.238H132.752V110.133C132.721 109.656 132.594 109.297 132.371 109.055C132.148 108.809 131.84 108.686 131.445 108.686Z" fill="black"/>
<rect x="0.5" y="173.5" width="124" height="35" stroke="black"/>
<path d="M37.6406 195H36.1641V191.209H32.3496V195H30.8672V186.469H32.3496V190.02H36.1641V186.469H37.6406V195ZM40.7754 195H39.3516V188.66H40.7754V195ZM39.2637 187.014C39.2637 186.795 39.332 186.613 39.4688 186.469C39.6094 186.324 39.8086 186.252 40.0664 186.252C40.3242 186.252 40.5234 186.324 40.6641 186.469C40.8047 186.613 40.875 186.795 40.875 187.014C40.875 187.229 40.8047 187.408 40.6641 187.553C40.5234 187.693 40.3242 187.764 40.0664 187.764C39.8086 187.764 39.6094 187.693 39.4688 187.553C39.332 187.408 39.2637 187.229 39.2637 187.014ZM45.123 195.117C44.2207 195.117 43.4883 194.834 42.9258 194.268C42.3672 193.697 42.0879 192.939 42.0879 191.994V191.818C42.0879 191.186 42.209 190.621 42.4512 190.125C42.6973 189.625 43.041 189.236 43.4824 188.959C43.9238 188.682 44.416 188.543 44.959 188.543C45.8223 188.543 46.4883 188.818 46.957 189.369C47.4297 189.92 47.666 190.699 47.666 191.707V192.281H43.5234C43.5664 192.805 43.7402 193.219 44.0449 193.523C44.3535 193.828 44.7402 193.98 45.2051 193.98C45.8574 193.98 46.3887 193.717 46.7988 193.189L47.5664 193.922C47.3125 194.301 46.9727 194.596 46.5469 194.807C46.125 195.014 45.6504 195.117 45.123 195.117ZM44.9531 189.686C44.5625 189.686 44.2461 189.822 44.0039 190.096C43.7656 190.369 43.6133 190.75 43.5469 191.238H46.2598V191.133C46.2285 190.656 46.1016 190.297 45.8789 190.055C45.6562 189.809 45.3477 189.686 44.9531 189.686ZM52.0957 189.961C51.9082 189.93 51.7148 189.914 51.5156 189.914C50.8633 189.914 50.4238 190.164 50.1973 190.664V195H48.7734V188.66H50.1328L50.168 189.369C50.5117 188.818 50.9883 188.543 51.5977 188.543C51.8008 188.543 51.9688 188.57 52.1016 188.625L52.0957 189.961ZM56.6074 195C56.5449 194.879 56.4902 194.682 56.4434 194.408C55.9902 194.881 55.4355 195.117 54.7793 195.117C54.1426 195.117 53.623 194.936 53.2207 194.572C52.8184 194.209 52.6172 193.76 52.6172 193.225C52.6172 192.549 52.8672 192.031 53.3672 191.672C53.8711 191.309 54.5898 191.127 55.5234 191.127H56.3965V190.711C56.3965 190.383 56.3047 190.121 56.1211 189.926C55.9375 189.727 55.6582 189.627 55.2832 189.627C54.959 189.627 54.6934 189.709 54.4863 189.873C54.2793 190.033 54.1758 190.238 54.1758 190.488H52.752C52.752 190.141 52.8672 189.816 53.0977 189.516C53.3281 189.211 53.6406 188.973 54.0352 188.801C54.4336 188.629 54.877 188.543 55.3652 188.543C56.1074 188.543 56.6992 188.73 57.1406 189.105C57.582 189.477 57.8086 190 57.8203 190.676V193.535C57.8203 194.105 57.9004 194.561 58.0605 194.9V195H56.6074ZM55.043 193.975C55.3242 193.975 55.5879 193.906 55.834 193.77C56.084 193.633 56.2715 193.449 56.3965 193.219V192.023H55.6289C55.1016 192.023 54.7051 192.115 54.4395 192.299C54.1738 192.482 54.041 192.742 54.041 193.078C54.041 193.352 54.1309 193.57 54.3105 193.734C54.4941 193.895 54.7383 193.975 55.043 193.975ZM62.6309 189.961C62.4434 189.93 62.25 189.914 62.0508 189.914C61.3984 189.914 60.959 190.164 60.7324 190.664V195H59.3086V188.66H60.668L60.7031 189.369C61.0469 188.818 61.5234 188.543 62.1328 188.543C62.3359 188.543 62.5039 188.57 62.6367 188.625L62.6309 189.961ZM66.0176 193.98C66.373 193.98 66.668 193.877 66.9023 193.67C67.1367 193.463 67.2617 193.207 67.2773 192.902H68.6191C68.6035 193.297 68.4805 193.666 68.25 194.01C68.0195 194.35 67.707 194.619 67.3125 194.818C66.918 195.018 66.4922 195.117 66.0352 195.117C65.1484 195.117 64.4453 194.83 63.9258 194.256C63.4062 193.682 63.1465 192.889 63.1465 191.877V191.73C63.1465 190.766 63.4043 189.994 63.9199 189.416C64.4355 188.834 65.1387 188.543 66.0293 188.543C66.7832 188.543 67.3965 188.764 67.8691 189.205C68.3457 189.643 68.5957 190.219 68.6191 190.934H67.2773C67.2617 190.57 67.1367 190.271 66.9023 190.037C66.6719 189.803 66.377 189.686 66.0176 189.686C65.5566 189.686 65.2012 189.854 64.9512 190.189C64.7012 190.521 64.5742 191.027 64.5703 191.707V191.936C64.5703 192.623 64.6934 193.137 64.9395 193.477C65.1895 193.812 65.5488 193.98 66.0176 193.98ZM71.0977 189.352C71.5625 188.812 72.1504 188.543 72.8613 188.543C74.2129 188.543 74.8984 189.314 74.918 190.857V195H73.4941V190.91C73.4941 190.473 73.3984 190.164 73.207 189.984C73.0195 189.801 72.7422 189.709 72.375 189.709C71.8047 189.709 71.3789 189.963 71.0977 190.471V195H69.6738V186H71.0977V189.352ZM77.877 195H76.4531V188.66H77.877V195ZM76.3652 187.014C76.3652 186.795 76.4336 186.613 76.5703 186.469C76.7109 186.324 76.9102 186.252 77.168 186.252C77.4258 186.252 77.625 186.324 77.7656 186.469C77.9062 186.613 77.9766 186.795 77.9766 187.014C77.9766 187.229 77.9062 187.408 77.7656 187.553C77.625 187.693 77.4258 187.764 77.168 187.764C76.9102 187.764 76.7109 187.693 76.5703 187.553C76.4336 187.408 76.3652 187.229 76.3652 187.014ZM82.0371 193.98C82.3926 193.98 82.6875 193.877 82.9219 193.67C83.1562 193.463 83.2812 193.207 83.2969 192.902H84.6387C84.623 193.297 84.5 193.666 84.2695 194.01C84.0391 194.35 83.7266 194.619 83.332 194.818C82.9375 195.018 82.5117 195.117 82.0547 195.117C81.168 195.117 80.4648 194.83 79.9453 194.256C79.4258 193.682 79.166 192.889 79.166 191.877V191.73C79.166 190.766 79.4238 189.994 79.9395 189.416C80.4551 188.834 81.1582 188.543 82.0488 188.543C82.8027 188.543 83.416 188.764 83.8887 189.205C84.3652 189.643 84.6152 190.219 84.6387 190.934H83.2969C83.2812 190.57 83.1562 190.271 82.9219 190.037C82.6914 189.803 82.3965 189.686 82.0371 189.686C81.5762 189.686 81.2207 189.854 80.9707 190.189C80.7207 190.521 80.5938 191.027 80.5898 191.707V191.936C80.5898 192.623 80.7129 193.137 80.959 193.477C81.209 193.812 81.5684 193.98 82.0371 193.98ZM89.502 195C89.4395 194.879 89.3848 194.682 89.3379 194.408C88.8848 194.881 88.3301 195.117 87.6738 195.117C87.0371 195.117 86.5176 194.936 86.1152 194.572C85.7129 194.209 85.5117 193.76 85.5117 193.225C85.5117 192.549 85.7617 192.031 86.2617 191.672C86.7656 191.309 87.4844 191.127 88.418 191.127H89.291V190.711C89.291 190.383 89.1992 190.121 89.0156 189.926C88.832 189.727 88.5527 189.627 88.1777 189.627C87.8535 189.627 87.5879 189.709 87.3809 189.873C87.1738 190.033 87.0703 190.238 87.0703 190.488H85.6465C85.6465 190.141 85.7617 189.816 85.9922 189.516C86.2227 189.211 86.5352 188.973 86.9297 188.801C87.3281 188.629 87.7715 188.543 88.2598 188.543C89.002 188.543 89.5938 188.73 90.0352 189.105C90.4766 189.477 90.7031 190 90.7148 190.676V193.535C90.7148 194.105 90.7949 194.561 90.9551 194.9V195H89.502ZM87.9375 193.975C88.2188 193.975 88.4824 193.906 88.7285 193.77C88.9785 193.633 89.166 193.449 89.291 193.219V192.023H88.5234C87.9961 192.023 87.5996 192.115 87.334 192.299C87.0684 192.482 86.9355 192.742 86.9355 193.078C86.9355 193.352 87.0254 193.57 87.2051 193.734C87.3887 193.895 87.6328 193.975 87.9375 193.975ZM93.7207 195H92.2969V186H93.7207V195Z" fill="black"/>
<rect x="138.5" y="173.5" width="124" height="35" stroke="black"/>
<path d="M159.867 195V186.469H162.791C163.756 186.469 164.49 186.662 164.994 187.049C165.498 187.436 165.75 188.012 165.75 188.777C165.75 189.168 165.645 189.52 165.434 189.832C165.223 190.145 164.914 190.387 164.508 190.559C164.969 190.684 165.324 190.92 165.574 191.268C165.828 191.611 165.955 192.025 165.955 192.51C165.955 193.311 165.697 193.926 165.182 194.355C164.67 194.785 163.936 195 162.979 195H159.867ZM161.35 191.15V193.816H162.996C163.461 193.816 163.824 193.701 164.086 193.471C164.348 193.24 164.479 192.92 164.479 192.51C164.479 191.623 164.025 191.17 163.119 191.15H161.35ZM161.35 190.061H162.803C163.264 190.061 163.623 189.957 163.881 189.75C164.143 189.539 164.273 189.242 164.273 188.859C164.273 188.438 164.152 188.133 163.91 187.945C163.672 187.758 163.299 187.664 162.791 187.664H161.35V190.061ZM170.092 195.117C169.189 195.117 168.457 194.834 167.895 194.268C167.336 193.697 167.057 192.939 167.057 191.994V191.818C167.057 191.186 167.178 190.621 167.42 190.125C167.666 189.625 168.01 189.236 168.451 188.959C168.893 188.682 169.385 188.543 169.928 188.543C170.791 188.543 171.457 188.818 171.926 189.369C172.398 189.92 172.635 190.699 172.635 191.707V192.281H168.492C168.535 192.805 168.709 193.219 169.014 193.523C169.322 193.828 169.709 193.98 170.174 193.98C170.826 193.98 171.357 193.717 171.768 193.189L172.535 193.922C172.281 194.301 171.941 194.596 171.516 194.807C171.094 195.014 170.619 195.117 170.092 195.117ZM169.922 189.686C169.531 189.686 169.215 189.822 168.973 190.096C168.734 190.369 168.582 190.75 168.516 191.238H171.229V191.133C171.197 190.656 171.07 190.297 170.848 190.055C170.625 189.809 170.316 189.686 169.922 189.686ZM175.148 189.352C175.613 188.812 176.201 188.543 176.912 188.543C178.264 188.543 178.949 189.314 178.969 190.857V195H177.545V190.91C177.545 190.473 177.449 190.164 177.258 189.984C177.07 189.801 176.793 189.709 176.426 189.709C175.855 189.709 175.43 189.963 175.148 190.471V195H173.725V186H175.148V189.352ZM184.201 195C184.139 194.879 184.084 194.682 184.037 194.408C183.584 194.881 183.029 195.117 182.373 195.117C181.736 195.117 181.217 194.936 180.814 194.572C180.412 194.209 180.211 193.76 180.211 193.225C180.211 192.549 180.461 192.031 180.961 191.672C181.465 191.309 182.184 191.127 183.117 191.127H183.99V190.711C183.99 190.383 183.898 190.121 183.715 189.926C183.531 189.727 183.252 189.627 182.877 189.627C182.553 189.627 182.287 189.709 182.08 189.873C181.873 190.033 181.77 190.238 181.77 190.488H180.346C180.346 190.141 180.461 189.816 180.691 189.516C180.922 189.211 181.234 188.973 181.629 188.801C182.027 188.629 182.471 188.543 182.959 188.543C183.701 188.543 184.293 188.73 184.734 189.105C185.176 189.477 185.402 190 185.414 190.676V193.535C185.414 194.105 185.494 194.561 185.654 194.9V195H184.201ZM182.637 193.975C182.918 193.975 183.182 193.906 183.428 193.77C183.678 193.633 183.865 193.449 183.99 193.219V192.023H183.223C182.695 192.023 182.299 192.115 182.033 192.299C181.768 192.482 181.635 192.742 181.635 193.078C181.635 193.352 181.725 193.57 181.904 193.734C182.088 193.895 182.332 193.975 182.637 193.975ZM189.047 193.195L190.389 188.66H191.859L189.662 195H188.426L186.211 188.66H187.688L189.047 193.195ZM194.268 195H192.844V188.66H194.268V195ZM192.756 187.014C192.756 186.795 192.824 186.613 192.961 186.469C193.102 186.324 193.301 186.252 193.559 186.252C193.816 186.252 194.016 186.324 194.156 186.469C194.297 186.613 194.367 186.795 194.367 187.014C194.367 187.229 194.297 187.408 194.156 187.553C194.016 187.693 193.816 187.764 193.559 187.764C193.301 187.764 193.102 187.693 192.961 187.553C192.824 187.408 192.756 187.229 192.756 187.014ZM195.557 191.771C195.557 191.15 195.68 190.592 195.926 190.096C196.172 189.596 196.518 189.213 196.963 188.947C197.408 188.678 197.92 188.543 198.498 188.543C199.354 188.543 200.047 188.818 200.578 189.369C201.113 189.92 201.402 190.65 201.445 191.561L201.451 191.895C201.451 192.52 201.33 193.078 201.088 193.57C200.85 194.062 200.506 194.443 200.057 194.713C199.611 194.982 199.096 195.117 198.51 195.117C197.615 195.117 196.898 194.82 196.359 194.227C195.824 193.629 195.557 192.834 195.557 191.842V191.771ZM196.98 191.895C196.98 192.547 197.115 193.059 197.385 193.43C197.654 193.797 198.029 193.98 198.51 193.98C198.99 193.98 199.363 193.793 199.629 193.418C199.898 193.043 200.033 192.494 200.033 191.771C200.033 191.131 199.895 190.623 199.617 190.248C199.344 189.873 198.971 189.686 198.498 189.686C198.033 189.686 197.664 189.871 197.391 190.242C197.117 190.609 196.98 191.16 196.98 191.895ZM205.975 189.961C205.787 189.93 205.594 189.914 205.395 189.914C204.742 189.914 204.303 190.164 204.076 190.664V195H202.652V188.66H204.012L204.047 189.369C204.391 188.818 204.867 188.543 205.477 188.543C205.68 188.543 205.848 188.57 205.98 188.625L205.975 189.961ZM209.637 191.947H206.561V190.799H209.637V191.947ZM216.375 191.895C216.375 192.879 216.154 193.662 215.713 194.244C215.275 194.826 214.672 195.117 213.902 195.117C213.16 195.117 212.582 194.85 212.168 194.314L212.098 195H210.809V186H212.232V189.27C212.643 188.785 213.195 188.543 213.891 188.543C214.664 188.543 215.271 188.83 215.713 189.404C216.154 189.979 216.375 190.781 216.375 191.812V191.895ZM214.951 191.771C214.951 191.084 214.83 190.568 214.588 190.225C214.346 189.881 213.994 189.709 213.533 189.709C212.916 189.709 212.482 189.979 212.232 190.518V193.131C212.486 193.682 212.924 193.957 213.545 193.957C213.99 193.957 214.334 193.791 214.576 193.459C214.818 193.127 214.943 192.625 214.951 191.953V191.771ZM221.361 195C221.299 194.879 221.244 194.682 221.197 194.408C220.744 194.881 220.189 195.117 219.533 195.117C218.896 195.117 218.377 194.936 217.975 194.572C217.572 194.209 217.371 193.76 217.371 193.225C217.371 192.549 217.621 192.031 218.121 191.672C218.625 191.309 219.344 191.127 220.277 191.127H221.15V190.711C221.15 190.383 221.059 190.121 220.875 189.926C220.691 189.727 220.412 189.627 220.037 189.627C219.713 189.627 219.447 189.709 219.24 189.873C219.033 190.033 218.93 190.238 218.93 190.488H217.506C217.506 190.141 217.621 189.816 217.852 189.516C218.082 189.211 218.395 188.973 218.789 188.801C219.188 188.629 219.631 188.543 220.119 188.543C220.861 188.543 221.453 188.73 221.895 189.105C222.336 189.477 222.562 190 222.574 190.676V193.535C222.574 194.105 222.654 194.561 222.814 194.9V195H221.361ZM219.797 193.975C220.078 193.975 220.342 193.906 220.588 193.77C220.838 193.633 221.025 193.449 221.15 193.219V192.023H220.383C219.855 192.023 219.459 192.115 219.193 192.299C218.928 192.482 218.795 192.742 218.795 193.078C218.795 193.352 218.885 193.57 219.064 193.734C219.248 193.895 219.492 193.975 219.797 193.975ZM227.619 193.277C227.619 193.023 227.514 192.83 227.303 192.697C227.096 192.564 226.75 192.447 226.266 192.346C225.781 192.244 225.377 192.115 225.053 191.959C224.342 191.615 223.986 191.117 223.986 190.465C223.986 189.918 224.217 189.461 224.678 189.094C225.139 188.727 225.725 188.543 226.436 188.543C227.193 188.543 227.805 188.73 228.27 189.105C228.738 189.48 228.973 189.967 228.973 190.564H227.549C227.549 190.291 227.447 190.064 227.244 189.885C227.041 189.701 226.771 189.609 226.436 189.609C226.123 189.609 225.867 189.682 225.668 189.826C225.473 189.971 225.375 190.164 225.375 190.406C225.375 190.625 225.467 190.795 225.65 190.916C225.834 191.037 226.205 191.16 226.764 191.285C227.322 191.406 227.76 191.553 228.076 191.725C228.396 191.893 228.633 192.096 228.785 192.334C228.941 192.572 229.02 192.861 229.02 193.201C229.02 193.771 228.783 194.234 228.311 194.59C227.838 194.941 227.219 195.117 226.453 195.117C225.934 195.117 225.471 195.023 225.064 194.836C224.658 194.648 224.342 194.391 224.115 194.062C223.889 193.734 223.775 193.381 223.775 193.002H225.158C225.178 193.338 225.305 193.598 225.539 193.781C225.773 193.961 226.084 194.051 226.471 194.051C226.846 194.051 227.131 193.98 227.326 193.84C227.521 193.695 227.619 193.508 227.619 193.277ZM233.057 195.117C232.154 195.117 231.422 194.834 230.859 194.268C230.301 193.697 230.021 192.939 230.021 191.994V191.818C230.021 191.186 230.143 190.621 230.385 190.125C230.631 189.625 230.975 189.236 231.416 188.959C231.857 188.682 232.35 188.543 232.893 188.543C233.756 188.543 234.422 188.818 234.891 189.369C235.363 189.92 235.6 190.699 235.6 191.707V192.281H231.457C231.5 192.805 231.674 193.219 231.979 193.523C232.287 193.828 232.674 193.98 233.139 193.98C233.791 193.98 234.322 193.717 234.732 193.189L235.5 193.922C235.246 194.301 234.906 194.596 234.48 194.807C234.059 195.014 233.584 195.117 233.057 195.117ZM232.887 189.686C232.496 189.686 232.18 189.822 231.938 190.096C231.699 190.369 231.547 190.75 231.48 191.238H234.193V191.133C234.162 190.656 234.035 190.297 233.812 190.055C233.59 189.809 233.281 189.686 232.887 189.686ZM236.443 191.783C236.443 190.807 236.67 190.023 237.123 189.434C237.576 188.84 238.184 188.543 238.945 188.543C239.617 188.543 240.16 188.777 240.574 189.246V186H241.998V195H240.709L240.639 194.344C240.213 194.859 239.645 195.117 238.934 195.117C238.191 195.117 237.59 194.818 237.129 194.221C236.672 193.623 236.443 192.811 236.443 191.783ZM237.867 191.906C237.867 192.551 237.99 193.055 238.236 193.418C238.486 193.777 238.84 193.957 239.297 193.957C239.879 193.957 240.305 193.697 240.574 193.178V190.471C240.312 189.963 239.891 189.709 239.309 189.709C238.848 189.709 238.492 189.893 238.242 190.26C237.992 190.623 237.867 191.172 237.867 191.906Z" fill="black"/>
<rect x="276.5" y="173.5" width="124" height="35" stroke="black"/>
<path d="M299.873 193.143L302.041 186.469H303.67L300.6 195H299.164L296.105 186.469H297.729L299.873 193.143ZM306.014 195H304.59V188.66H306.014V195ZM304.502 187.014C304.502 186.795 304.57 186.613 304.707 186.469C304.848 186.324 305.047 186.252 305.305 186.252C305.562 186.252 305.762 186.324 305.902 186.469C306.043 186.613 306.113 186.795 306.113 187.014C306.113 187.229 306.043 187.408 305.902 187.553C305.762 187.693 305.562 187.764 305.305 187.764C305.047 187.764 304.848 187.693 304.707 187.553C304.57 187.408 304.502 187.229 304.502 187.014ZM310.889 189.961C310.701 189.93 310.508 189.914 310.309 189.914C309.656 189.914 309.217 190.164 308.99 190.664V195H307.566V188.66H308.926L308.961 189.369C309.305 188.818 309.781 188.543 310.391 188.543C310.594 188.543 310.762 188.57 310.895 188.625L310.889 189.961ZM313.865 187.119V188.66H314.984V189.715H313.865V193.254C313.865 193.496 313.912 193.672 314.006 193.781C314.104 193.887 314.275 193.939 314.521 193.939C314.686 193.939 314.852 193.92 315.02 193.881V194.982C314.695 195.072 314.383 195.117 314.082 195.117C312.988 195.117 312.441 194.514 312.441 193.307V189.715H311.398V188.66H312.441V187.119H313.865ZM319.918 194.379C319.5 194.871 318.906 195.117 318.137 195.117C317.449 195.117 316.928 194.916 316.572 194.514C316.221 194.111 316.045 193.529 316.045 192.768V188.66H317.469V192.75C317.469 193.555 317.803 193.957 318.471 193.957C319.162 193.957 319.629 193.709 319.871 193.213V188.66H321.295V195H319.953L319.918 194.379ZM326.533 195C326.471 194.879 326.416 194.682 326.369 194.408C325.916 194.881 325.361 195.117 324.705 195.117C324.068 195.117 323.549 194.936 323.146 194.572C322.744 194.209 322.543 193.76 322.543 193.225C322.543 192.549 322.793 192.031 323.293 191.672C323.797 191.309 324.516 191.127 325.449 191.127H326.322V190.711C326.322 190.383 326.23 190.121 326.047 189.926C325.863 189.727 325.584 189.627 325.209 189.627C324.885 189.627 324.619 189.709 324.412 189.873C324.205 190.033 324.102 190.238 324.102 190.488H322.678C322.678 190.141 322.793 189.816 323.023 189.516C323.254 189.211 323.566 188.973 323.961 188.801C324.359 188.629 324.803 188.543 325.291 188.543C326.033 188.543 326.625 188.73 327.066 189.105C327.508 189.477 327.734 190 327.746 190.676V193.535C327.746 194.105 327.826 194.561 327.986 194.9V195H326.533ZM324.969 193.975C325.25 193.975 325.514 193.906 325.76 193.77C326.01 193.633 326.197 193.449 326.322 193.219V192.023H325.555C325.027 192.023 324.631 192.115 324.365 192.299C324.1 192.482 323.967 192.742 323.967 193.078C323.967 193.352 324.057 193.57 324.236 193.734C324.42 193.895 324.664 193.975 324.969 193.975ZM330.752 195H329.328V186H330.752V195ZM338.85 193.277C338.85 193.023 338.744 192.83 338.533 192.697C338.326 192.564 337.98 192.447 337.496 192.346C337.012 192.244 336.607 192.115 336.283 191.959C335.572 191.615 335.217 191.117 335.217 190.465C335.217 189.918 335.447 189.461 335.908 189.094C336.369 188.727 336.955 188.543 337.666 188.543C338.424 188.543 339.035 188.73 339.5 189.105C339.969 189.48 340.203 189.967 340.203 190.564H338.779C338.779 190.291 338.678 190.064 338.475 189.885C338.271 189.701 338.002 189.609 337.666 189.609C337.354 189.609 337.098 189.682 336.898 189.826C336.703 189.971 336.605 190.164 336.605 190.406C336.605 190.625 336.697 190.795 336.881 190.916C337.064 191.037 337.436 191.16 337.994 191.285C338.553 191.406 338.99 191.553 339.307 191.725C339.627 191.893 339.863 192.096 340.016 192.334C340.172 192.572 340.25 192.861 340.25 193.201C340.25 193.771 340.014 194.234 339.541 194.59C339.068 194.941 338.449 195.117 337.684 195.117C337.164 195.117 336.701 195.023 336.295 194.836C335.889 194.648 335.572 194.391 335.346 194.062C335.119 193.734 335.006 193.381 335.006 193.002H336.389C336.408 193.338 336.535 193.598 336.77 193.781C337.004 193.961 337.314 194.051 337.701 194.051C338.076 194.051 338.361 193.98 338.557 193.84C338.752 193.695 338.85 193.508 338.85 193.277ZM343.279 187.119V188.66H344.398V189.715H343.279V193.254C343.279 193.496 343.326 193.672 343.42 193.781C343.518 193.887 343.689 193.939 343.936 193.939C344.1 193.939 344.266 193.92 344.434 193.881V194.982C344.109 195.072 343.797 195.117 343.496 195.117C342.402 195.117 341.855 194.514 341.855 193.307V189.715H340.812V188.66H341.855V187.119H343.279ZM348.811 189.961C348.623 189.93 348.43 189.914 348.23 189.914C347.578 189.914 347.139 190.164 346.912 190.664V195H345.488V188.66H346.848L346.883 189.369C347.227 188.818 347.703 188.543 348.312 188.543C348.516 188.543 348.684 188.57 348.816 188.625L348.811 189.961ZM353.551 194.379C353.133 194.871 352.539 195.117 351.77 195.117C351.082 195.117 350.561 194.916 350.205 194.514C349.854 194.111 349.678 193.529 349.678 192.768V188.66H351.102V192.75C351.102 193.555 351.436 193.957 352.104 193.957C352.795 193.957 353.262 193.709 353.504 193.213V188.66H354.928V195H353.586L353.551 194.379ZM358.982 193.98C359.338 193.98 359.633 193.877 359.867 193.67C360.102 193.463 360.227 193.207 360.242 192.902H361.584C361.568 193.297 361.445 193.666 361.215 194.01C360.984 194.35 360.672 194.619 360.277 194.818C359.883 195.018 359.457 195.117 359 195.117C358.113 195.117 357.41 194.83 356.891 194.256C356.371 193.682 356.111 192.889 356.111 191.877V191.73C356.111 190.766 356.369 189.994 356.885 189.416C357.4 188.834 358.104 188.543 358.994 188.543C359.748 188.543 360.361 188.764 360.834 189.205C361.311 189.643 361.561 190.219 361.584 190.934H360.242C360.227 190.57 360.102 190.271 359.867 190.037C359.637 189.803 359.342 189.686 358.982 189.686C358.521 189.686 358.166 189.854 357.916 190.189C357.666 190.521 357.539 191.027 357.535 191.707V191.936C357.535 192.623 357.658 193.137 357.904 193.477C358.154 193.812 358.514 193.98 358.982 193.98ZM364.443 187.119V188.66H365.562V189.715H364.443V193.254C364.443 193.496 364.49 193.672 364.584 193.781C364.682 193.887 364.854 193.939 365.1 193.939C365.264 193.939 365.43 193.92 365.598 193.881V194.982C365.273 195.072 364.961 195.117 364.66 195.117C363.566 195.117 363.02 194.514 363.02 193.307V189.715H361.977V188.66H363.02V187.119H364.443ZM370.496 194.379C370.078 194.871 369.484 195.117 368.715 195.117C368.027 195.117 367.506 194.916 367.15 194.514C366.799 194.111 366.623 193.529 366.623 192.768V188.66H368.047V192.75C368.047 193.555 368.381 193.957 369.049 193.957C369.74 193.957 370.207 193.709 370.449 193.213V188.66H371.873V195H370.531L370.496 194.379ZM376.643 189.961C376.455 189.93 376.262 189.914 376.062 189.914C375.41 189.914 374.971 190.164 374.744 190.664V195H373.32V188.66H374.68L374.715 189.369C375.059 188.818 375.535 188.543 376.145 188.543C376.348 188.543 376.516 188.57 376.648 188.625L376.643 189.961ZM380.217 195.117C379.314 195.117 378.582 194.834 378.02 194.268C377.461 193.697 377.182 192.939 377.182 191.994V191.818C377.182 191.186 377.303 190.621 377.545 190.125C377.791 189.625 378.135 189.236 378.576 188.959C379.018 188.682 379.51 188.543 380.053 188.543C380.916 188.543 381.582 188.818 382.051 189.369C382.523 189.92 382.76 190.699 382.76 191.707V192.281H378.617C378.66 192.805 378.834 193.219 379.139 193.523C379.447 193.828 379.834 193.98 380.299 193.98C380.951 193.98 381.482 193.717 381.893 193.189L382.66 193.922C382.406 194.301 382.066 194.596 381.641 194.807C381.219 195.014 380.744 195.117 380.217 195.117ZM380.047 189.686C379.656 189.686 379.34 189.822 379.098 190.096C378.859 190.369 378.707 190.75 378.641 191.238H381.354V191.133C381.322 190.656 381.195 190.297 380.973 190.055C380.75 189.809 380.441 189.686 380.047 189.686Z" fill="black"/>
<rect x="242.5" y="92.5" width="113" height="35" stroke="black"/>
<path d="M280.002 110.713H278.35V114H276.867V105.469H279.867C280.852 105.469 281.611 105.689 282.146 106.131C282.682 106.572 282.949 107.211 282.949 108.047C282.949 108.617 282.811 109.096 282.533 109.482C282.26 109.865 281.877 110.16 281.385 110.367L283.301 113.924V114H281.713L280.002 110.713ZM278.35 109.523H279.873C280.373 109.523 280.764 109.398 281.045 109.148C281.326 108.895 281.467 108.549 281.467 108.111C281.467 107.654 281.336 107.301 281.074 107.051C280.816 106.801 280.43 106.672 279.914 106.664H278.35V109.523ZM287.01 114.117C286.107 114.117 285.375 113.834 284.812 113.268C284.254 112.697 283.975 111.939 283.975 110.994V110.818C283.975 110.186 284.096 109.621 284.338 109.125C284.584 108.625 284.928 108.236 285.369 107.959C285.811 107.682 286.303 107.543 286.846 107.543C287.709 107.543 288.375 107.818 288.844 108.369C289.316 108.92 289.553 109.699 289.553 110.707V111.281H285.41C285.453 111.805 285.627 112.219 285.932 112.523C286.24 112.828 286.627 112.98 287.092 112.98C287.744 112.98 288.275 112.717 288.686 112.189L289.453 112.922C289.199 113.301 288.859 113.596 288.434 113.807C288.012 114.014 287.537 114.117 287.01 114.117ZM286.84 108.686C286.449 108.686 286.133 108.822 285.891 109.096C285.652 109.369 285.5 109.75 285.434 110.238H288.146V110.133C288.115 109.656 287.988 109.297 287.766 109.055C287.543 108.809 287.234 108.686 286.84 108.686ZM294.451 114C294.389 113.879 294.334 113.682 294.287 113.408C293.834 113.881 293.279 114.117 292.623 114.117C291.986 114.117 291.467 113.936 291.064 113.572C290.662 113.209 290.461 112.76 290.461 112.225C290.461 111.549 290.711 111.031 291.211 110.672C291.715 110.309 292.434 110.127 293.367 110.127H294.24V109.711C294.24 109.383 294.148 109.121 293.965 108.926C293.781 108.727 293.502 108.627 293.127 108.627C292.803 108.627 292.537 108.709 292.33 108.873C292.123 109.033 292.02 109.238 292.02 109.488H290.596C290.596 109.141 290.711 108.816 290.941 108.516C291.172 108.211 291.484 107.973 291.879 107.801C292.277 107.629 292.721 107.543 293.209 107.543C293.951 107.543 294.543 107.73 294.984 108.105C295.426 108.477 295.652 109 295.664 109.676V112.535C295.664 113.105 295.744 113.561 295.904 113.9V114H294.451ZM292.887 112.975C293.168 112.975 293.432 112.906 293.678 112.77C293.928 112.633 294.115 112.449 294.24 112.219V111.023H293.473C292.945 111.023 292.549 111.115 292.283 111.299C292.018 111.482 291.885 111.742 291.885 112.078C291.885 112.352 291.975 112.57 292.154 112.734C292.338 112.895 292.582 112.975 292.887 112.975ZM299.76 112.98C300.115 112.98 300.41 112.877 300.645 112.67C300.879 112.463 301.004 112.207 301.02 111.902H302.361C302.346 112.297 302.223 112.666 301.992 113.01C301.762 113.35 301.449 113.619 301.055 113.818C300.66 114.018 300.234 114.117 299.777 114.117C298.891 114.117 298.188 113.83 297.668 113.256C297.148 112.682 296.889 111.889 296.889 110.877V110.73C296.889 109.766 297.146 108.994 297.662 108.416C298.178 107.834 298.881 107.543 299.771 107.543C300.525 107.543 301.139 107.764 301.611 108.205C302.088 108.643 302.338 109.219 302.361 109.934H301.02C301.004 109.57 300.879 109.271 300.645 109.037C300.414 108.803 300.119 108.686 299.76 108.686C299.299 108.686 298.943 108.854 298.693 109.189C298.443 109.521 298.316 110.027 298.312 110.707V110.936C298.312 111.623 298.436 112.137 298.682 112.477C298.932 112.812 299.291 112.98 299.76 112.98ZM305.221 106.119V107.66H306.34V108.715H305.221V112.254C305.221 112.496 305.268 112.672 305.361 112.781C305.459 112.887 305.631 112.939 305.877 112.939C306.041 112.939 306.207 112.92 306.375 112.881V113.982C306.051 114.072 305.738 114.117 305.438 114.117C304.344 114.117 303.797 113.514 303.797 112.307V108.715H302.754V107.66H303.797V106.119H305.221ZM308.947 114H307.523V107.66H308.947V114ZM307.436 106.014C307.436 105.795 307.504 105.613 307.641 105.469C307.781 105.324 307.98 105.252 308.238 105.252C308.496 105.252 308.695 105.324 308.836 105.469C308.977 105.613 309.047 105.795 309.047 106.014C309.047 106.229 308.977 106.408 308.836 106.553C308.695 106.693 308.496 106.764 308.238 106.764C307.98 106.764 307.781 106.693 307.641 106.553C307.504 106.408 307.436 106.229 307.436 106.014ZM312.738 112.195L314.08 107.66H315.551L313.354 114H312.117L309.902 107.66H311.379L312.738 112.195ZM319.154 114.117C318.252 114.117 317.52 113.834 316.957 113.268C316.398 112.697 316.119 111.939 316.119 110.994V110.818C316.119 110.186 316.24 109.621 316.482 109.125C316.729 108.625 317.072 108.236 317.514 107.959C317.955 107.682 318.447 107.543 318.99 107.543C319.854 107.543 320.52 107.818 320.988 108.369C321.461 108.92 321.697 109.699 321.697 110.707V111.281H317.555C317.598 111.805 317.771 112.219 318.076 112.523C318.385 112.828 318.771 112.98 319.236 112.98C319.889 112.98 320.42 112.717 320.83 112.189L321.598 112.922C321.344 113.301 321.004 113.596 320.578 113.807C320.156 114.014 319.682 114.117 319.154 114.117ZM318.984 108.686C318.594 108.686 318.277 108.822 318.035 109.096C317.797 109.369 317.645 109.75 317.578 110.238H320.291V110.133C320.26 109.656 320.133 109.297 319.91 109.055C319.688 108.809 319.379 108.686 318.984 108.686Z" fill="black"/>
<path d="M101.531 91.8262C101.435 92.0852 101.567 92.3729 101.826 92.4688L106.046 94.0327C106.305 94.1287 106.592 93.9966 106.688 93.7376C106.784 93.4787 106.652 93.191 106.393 93.095L102.643 91.7049L104.033 87.9543C104.129 87.6953 103.997 87.4076 103.738 87.3117C103.479 87.2157 103.191 87.3478 103.095 87.6067L101.531 91.8262ZM199.791 46.5456L101.791 91.5456L102.209 92.4544L200.209 47.4544L199.791 46.5456Z" fill="black"/>
<path d="M299.176 92.4682C299.434 92.3712 299.565 92.083 299.468 91.8244L297.888 87.611C297.791 87.3524 297.503 87.2214 297.244 87.3184C296.986 87.4153 296.855 87.7035 296.952 87.9621L298.356 91.7074L294.611 93.1119C294.352 93.2089 294.221 93.4971 294.318 93.7556C294.415 94.0142 294.704 94.1452 294.962 94.0482L299.176 92.4682ZM199.793 47.4552L298.793 92.4552L299.207 91.5448L200.207 46.5448L199.793 47.4552Z" fill="black"/>
<path d="M61.5867 172.719C61.4313 172.947 61.4904 173.258 61.7186 173.413L65.4383 175.946C65.6666 176.101 65.9776 176.042 66.133 175.814C66.2884 175.586 66.2294 175.275 66.0011 175.119L62.6947 172.868L64.9459 169.562C65.1013 169.333 65.0422 169.022 64.814 168.867C64.5857 168.712 64.2747 168.771 64.1193 168.999L61.5867 172.719ZM298.907 127.509L61.9068 172.509L62.0933 173.491L299.093 128.491L298.907 127.509Z" fill="black"/>
<path d="M199.532 172.824C199.435 173.083 199.566 173.371 199.824 173.468L204.038 175.048C204.296 175.145 204.585 175.014 204.682 174.756C204.779 174.497 204.648 174.209 204.389 174.112L200.644 172.707L202.048 168.962C202.145 168.704 202.014 168.415 201.756 168.318C201.497 168.221 201.209 168.352 201.112 168.611L199.532 172.824ZM298.793 127.545L199.793 172.545L200.207 173.455L299.207 128.455L298.793 127.545Z" fill="black"/>
<path d="M338.971 173.499C339.246 173.515 339.483 173.305 339.499 173.029L339.763 168.537C339.78 168.261 339.569 168.025 339.294 168.009C339.018 167.992 338.781 168.203 338.765 168.478L338.53 172.472L334.537 172.237C334.261 172.22 334.025 172.431 334.009 172.706C333.992 172.982 334.203 173.219 334.478 173.235L338.971 173.499ZM298.626 128.332L338.626 173.332L339.374 172.668L299.374 127.668L298.626 128.332Z" fill="black"/>
<path d="M10.7832 227.385H7.34961V231H5.86719V222.469H11.2871V223.664H7.34961V226.201H10.7832V227.385ZM11.9316 227.771C11.9316 227.15 12.0547 226.592 12.3008 226.096C12.5469 225.596 12.8926 225.213 13.3379 224.947C13.7832 224.678 14.2949 224.543 14.873 224.543C15.7285 224.543 16.4219 224.818 16.9531 225.369C17.4883 225.92 17.7773 226.65 17.8203 227.561L17.8262 227.895C17.8262 228.52 17.7051 229.078 17.4629 229.57C17.2246 230.062 16.8809 230.443 16.4316 230.713C15.9863 230.982 15.4707 231.117 14.8848 231.117C13.9902 231.117 13.2734 230.82 12.7344 230.227C12.1992 229.629 11.9316 228.834 11.9316 227.842V227.771ZM13.3555 227.895C13.3555 228.547 13.4902 229.059 13.7598 229.43C14.0293 229.797 14.4043 229.98 14.8848 229.98C15.3652 229.98 15.7383 229.793 16.0039 229.418C16.2734 229.043 16.4082 228.494 16.4082 227.771C16.4082 227.131 16.2695 226.623 15.9922 226.248C15.7188 225.873 15.3457 225.686 14.873 225.686C14.4082 225.686 14.0391 225.871 13.7656 226.242C13.4922 226.609 13.3555 227.16 13.3555 227.895ZM22.3496 225.961C22.1621 225.93 21.9688 225.914 21.7695 225.914C21.1172 225.914 20.6777 226.164 20.4512 226.664V231H19.0273V224.66H20.3867L20.4219 225.369C20.7656 224.818 21.2422 224.543 21.8516 224.543C22.0547 224.543 22.2227 224.57 22.3555 224.625L22.3496 225.961ZM24.5879 224.66L24.6289 225.322C25.0742 224.803 25.6836 224.543 26.457 224.543C27.3047 224.543 27.8848 224.867 28.1973 225.516C28.6582 224.867 29.3066 224.543 30.1426 224.543C30.8418 224.543 31.3613 224.736 31.7012 225.123C32.0449 225.51 32.2207 226.08 32.2285 226.834V231H30.8047V226.875C30.8047 226.473 30.7168 226.178 30.541 225.99C30.3652 225.803 30.0742 225.709 29.668 225.709C29.3438 225.709 29.0781 225.797 28.8711 225.973C28.668 226.145 28.5254 226.371 28.4434 226.652L28.4492 231H27.0254V226.828C27.0059 226.082 26.625 225.709 25.8828 225.709C25.3125 225.709 24.9082 225.941 24.6699 226.406V231H23.2461V224.66H24.5879ZM37.4785 231C37.416 230.879 37.3613 230.682 37.3145 230.408C36.8613 230.881 36.3066 231.117 35.6504 231.117C35.0137 231.117 34.4941 230.936 34.0918 230.572C33.6895 230.209 33.4883 229.76 33.4883 229.225C33.4883 228.549 33.7383 228.031 34.2383 227.672C34.7422 227.309 35.4609 227.127 36.3945 227.127H37.2676V226.711C37.2676 226.383 37.1758 226.121 36.9922 225.926C36.8086 225.727 36.5293 225.627 36.1543 225.627C35.8301 225.627 35.5645 225.709 35.3574 225.873C35.1504 226.033 35.0469 226.238 35.0469 226.488H33.623C33.623 226.141 33.7383 225.816 33.9688 225.516C34.1992 225.211 34.5117 224.973 34.9062 224.801C35.3047 224.629 35.748 224.543 36.2363 224.543C36.9785 224.543 37.5703 224.73 38.0117 225.105C38.4531 225.477 38.6797 226 38.6914 226.676V229.535C38.6914 230.105 38.7715 230.561 38.9316 230.9V231H37.4785ZM35.9141 229.975C36.1953 229.975 36.459 229.906 36.7051 229.77C36.9551 229.633 37.1426 229.449 37.2676 229.219V228.023H36.5C35.9727 228.023 35.5762 228.115 35.3105 228.299C35.0449 228.482 34.9121 228.742 34.9121 229.078C34.9121 229.352 35.002 229.57 35.1816 229.734C35.3652 229.895 35.6094 229.975 35.9141 229.975ZM41.9668 223.119V224.66H43.0859V225.715H41.9668V229.254C41.9668 229.496 42.0137 229.672 42.1074 229.781C42.2051 229.887 42.377 229.939 42.623 229.939C42.7871 229.939 42.9531 229.92 43.1211 229.881V230.982C42.7969 231.072 42.4844 231.117 42.1836 231.117C41.0898 231.117 40.543 230.514 40.543 229.307V225.715H39.5V224.66H40.543V223.119H41.9668ZM45.6934 231H44.2695V224.66H45.6934V231ZM44.1816 223.014C44.1816 222.795 44.25 222.613 44.3867 222.469C44.5273 222.324 44.7266 222.252 44.9844 222.252C45.2422 222.252 45.4414 222.324 45.582 222.469C45.7227 222.613 45.793 222.795 45.793 223.014C45.793 223.229 45.7227 223.408 45.582 223.553C45.4414 223.693 45.2422 223.764 44.9844 223.764C44.7266 223.764 44.5273 223.693 44.3867 223.553C44.25 223.408 44.1816 223.229 44.1816 223.014ZM46.9824 227.771C46.9824 227.15 47.1055 226.592 47.3516 226.096C47.5977 225.596 47.9434 225.213 48.3887 224.947C48.834 224.678 49.3457 224.543 49.9238 224.543C50.7793 224.543 51.4727 224.818 52.0039 225.369C52.5391 225.92 52.8281 226.65 52.8711 227.561L52.877 227.895C52.877 228.52 52.7559 229.078 52.5137 229.57C52.2754 230.062 51.9316 230.443 51.4824 230.713C51.0371 230.982 50.5215 231.117 49.9355 231.117C49.041 231.117 48.3242 230.82 47.7852 230.227C47.25 229.629 46.9824 228.834 46.9824 227.842V227.771ZM48.4062 227.895C48.4062 228.547 48.541 229.059 48.8105 229.43C49.0801 229.797 49.4551 229.98 49.9355 229.98C50.416 229.98 50.7891 229.793 51.0547 229.418C51.3242 229.043 51.459 228.494 51.459 227.771C51.459 227.131 51.3203 226.623 51.043 226.248C50.7695 225.873 50.3965 225.686 49.9238 225.686C49.459 225.686 49.0898 225.871 48.8164 226.242C48.543 226.609 48.4062 227.16 48.4062 227.895ZM55.4023 224.66L55.4434 225.393C55.9121 224.826 56.5273 224.543 57.2891 224.543C58.6094 224.543 59.2812 225.299 59.3047 226.811V231H57.8809V226.893C57.8809 226.49 57.793 226.193 57.6172 226.002C57.4453 225.807 57.1621 225.709 56.7676 225.709C56.1934 225.709 55.7656 225.969 55.4844 226.488V231H54.0605V224.66H55.4023ZM67.3027 229.277C67.3027 229.023 67.1973 228.83 66.9863 228.697C66.7793 228.564 66.4336 228.447 65.9492 228.346C65.4648 228.244 65.0605 228.115 64.7363 227.959C64.0254 227.615 63.6699 227.117 63.6699 226.465C63.6699 225.918 63.9004 225.461 64.3613 225.094C64.8223 224.727 65.4082 224.543 66.1191 224.543C66.877 224.543 67.4883 224.73 67.9531 225.105C68.4219 225.48 68.6562 225.967 68.6562 226.564H67.2324C67.2324 226.291 67.1309 226.064 66.9277 225.885C66.7246 225.701 66.4551 225.609 66.1191 225.609C65.8066 225.609 65.5508 225.682 65.3516 225.826C65.1562 225.971 65.0586 226.164 65.0586 226.406C65.0586 226.625 65.1504 226.795 65.334 226.916C65.5176 227.037 65.8887 227.16 66.4473 227.285C67.0059 227.406 67.4434 227.553 67.7598 227.725C68.0801 227.893 68.3164 228.096 68.4688 228.334C68.625 228.572 68.7031 228.861 68.7031 229.201C68.7031 229.771 68.4668 230.234 67.9941 230.59C67.5215 230.941 66.9023 231.117 66.1367 231.117C65.6172 231.117 65.1543 231.023 64.748 230.836C64.3418 230.648 64.0254 230.391 63.7988 230.062C63.5723 229.734 63.459 229.381 63.459 229.002H64.8418C64.8613 229.338 64.9883 229.598 65.2227 229.781C65.457 229.961 65.7676 230.051 66.1543 230.051C66.5293 230.051 66.8145 229.98 67.0098 229.84C67.2051 229.695 67.3027 229.508 67.3027 229.277ZM71.7324 223.119V224.66H72.8516V225.715H71.7324V229.254C71.7324 229.496 71.7793 229.672 71.873 229.781C71.9707 229.887 72.1426 229.939 72.3887 229.939C72.5527 229.939 72.7188 229.92 72.8867 229.881V230.982C72.5625 231.072 72.25 231.117 71.9492 231.117C70.8555 231.117 70.3086 230.514 70.3086 229.307V225.715H69.2656V224.66H70.3086V223.119H71.7324ZM77.2637 225.961C77.0762 225.93 76.8828 225.914 76.6836 225.914C76.0312 225.914 75.5918 226.164 75.3652 226.664V231H73.9414V224.66H75.3008L75.3359 225.369C75.6797 224.818 76.1562 224.543 76.7656 224.543C76.9688 224.543 77.1367 224.57 77.2695 224.625L77.2637 225.961ZM81.7754 231C81.7129 230.879 81.6582 230.682 81.6113 230.408C81.1582 230.881 80.6035 231.117 79.9473 231.117C79.3105 231.117 78.791 230.936 78.3887 230.572C77.9863 230.209 77.7852 229.76 77.7852 229.225C77.7852 228.549 78.0352 228.031 78.5352 227.672C79.0391 227.309 79.7578 227.127 80.6914 227.127H81.5645V226.711C81.5645 226.383 81.4727 226.121 81.2891 225.926C81.1055 225.727 80.8262 225.627 80.4512 225.627C80.127 225.627 79.8613 225.709 79.6543 225.873C79.4473 226.033 79.3438 226.238 79.3438 226.488H77.9199C77.9199 226.141 78.0352 225.816 78.2656 225.516C78.4961 225.211 78.8086 224.973 79.2031 224.801C79.6016 224.629 80.0449 224.543 80.5332 224.543C81.2754 224.543 81.8672 224.73 82.3086 225.105C82.75 225.477 82.9766 226 82.9883 226.676V229.535C82.9883 230.105 83.0684 230.561 83.2285 230.9V231H81.7754ZM80.2109 229.975C80.4922 229.975 80.7559 229.906 81.002 229.77C81.252 229.633 81.4395 229.449 81.5645 229.219V228.023H80.7969C80.2695 228.023 79.873 228.115 79.6074 228.299C79.3418 228.482 79.209 228.742 79.209 229.078C79.209 229.352 79.2988 229.57 79.4785 229.734C79.6621 229.895 79.9062 229.975 80.2109 229.975ZM86.2637 223.119V224.66H87.3828V225.715H86.2637V229.254C86.2637 229.496 86.3105 229.672 86.4043 229.781C86.502 229.887 86.6738 229.939 86.9199 229.939C87.084 229.939 87.25 229.92 87.418 229.881V230.982C87.0938 231.072 86.7812 231.117 86.4805 231.117C85.3867 231.117 84.8398 230.514 84.8398 229.307V225.715H83.7969V224.66H84.8398V223.119H86.2637ZM91.2676 231.117C90.3652 231.117 89.6328 230.834 89.0703 230.268C88.5117 229.697 88.2324 228.939 88.2324 227.994V227.818C88.2324 227.186 88.3535 226.621 88.5957 226.125C88.8418 225.625 89.1855 225.236 89.627 224.959C90.0684 224.682 90.5605 224.543 91.1035 224.543C91.9668 224.543 92.6328 224.818 93.1016 225.369C93.5742 225.92 93.8105 226.699 93.8105 227.707V228.281H89.668C89.7109 228.805 89.8848 229.219 90.1895 229.523C90.498 229.828 90.8848 229.98 91.3496 229.98C92.002 229.98 92.5332 229.717 92.9434 229.189L93.7109 229.922C93.457 230.301 93.1172 230.596 92.6914 230.807C92.2695 231.014 91.7949 231.117 91.2676 231.117ZM91.0977 225.686C90.707 225.686 90.3906 225.822 90.1484 226.096C89.9102 226.369 89.7578 226.75 89.6914 227.238H92.4043V227.133C92.373 226.656 92.2461 226.297 92.0234 226.055C91.8008 225.809 91.4922 225.686 91.0977 225.686ZM94.6719 227.783C94.6719 226.799 94.9023 226.014 95.3633 225.428C95.8281 224.838 96.4434 224.543 97.209 224.543C97.9316 224.543 98.5 224.795 98.9141 225.299L98.9785 224.66H100.262V230.807C100.262 231.639 100.002 232.295 99.4824 232.775C98.9668 233.256 98.2695 233.496 97.3906 233.496C96.9258 233.496 96.4707 233.398 96.0254 233.203C95.584 233.012 95.248 232.76 95.0176 232.447L95.6914 231.592C96.1289 232.111 96.668 232.371 97.3086 232.371C97.7812 232.371 98.1543 232.242 98.4277 231.984C98.7012 231.73 98.8379 231.355 98.8379 230.859V230.432C98.4277 230.889 97.8809 231.117 97.1973 231.117C96.4551 231.117 95.8477 230.822 95.375 230.232C94.9062 229.643 94.6719 228.826 94.6719 227.783ZM96.0898 227.906C96.0898 228.543 96.2188 229.045 96.4766 229.412C96.7383 229.775 97.0996 229.957 97.5605 229.957C98.1348 229.957 98.5605 229.711 98.8379 229.219V226.43C98.5684 225.949 98.1465 225.709 97.5723 225.709C97.1035 225.709 96.7383 225.895 96.4766 226.266C96.2188 226.637 96.0898 227.184 96.0898 227.906ZM103.947 228.961L105.236 224.66H106.754L104.234 231.961C103.848 233.027 103.191 233.561 102.266 233.561C102.059 233.561 101.83 233.525 101.58 233.455V232.354L101.85 232.371C102.209 232.371 102.479 232.305 102.658 232.172C102.842 232.043 102.986 231.824 103.092 231.516L103.297 230.971L101.07 224.66H102.605L103.947 228.961Z" fill="black"/>
<path d="M12.377 143.223C12.291 144.133 11.9551 144.844 11.3691 145.355C10.7832 145.863 10.0039 146.117 9.03125 146.117C8.35156 146.117 7.75195 145.957 7.23242 145.637C6.7168 145.312 6.31836 144.854 6.03711 144.26C5.75586 143.666 5.60938 142.977 5.59766 142.191V141.395C5.59766 140.59 5.74023 139.881 6.02539 139.268C6.31055 138.654 6.71875 138.182 7.25 137.85C7.78516 137.518 8.40234 137.352 9.10156 137.352C10.043 137.352 10.8008 137.607 11.375 138.119C11.9492 138.631 12.2832 139.354 12.377 140.287H10.9004C10.8301 139.674 10.6504 139.232 10.3613 138.963C10.0762 138.689 9.65625 138.553 9.10156 138.553C8.45703 138.553 7.96094 138.789 7.61328 139.262C7.26953 139.73 7.09375 140.42 7.08594 141.33V142.086C7.08594 143.008 7.25 143.711 7.57812 144.195C7.91016 144.68 8.39453 144.922 9.03125 144.922C9.61328 144.922 10.0508 144.791 10.3438 144.529C10.6367 144.268 10.8223 143.832 10.9004 143.223H12.377ZM13.3027 142.771C13.3027 142.15 13.4258 141.592 13.6719 141.096C13.918 140.596 14.2637 140.213 14.709 139.947C15.1543 139.678 15.666 139.543 16.2441 139.543C17.0996 139.543 17.793 139.818 18.3242 140.369C18.8594 140.92 19.1484 141.65 19.1914 142.561L19.1973 142.895C19.1973 143.52 19.0762 144.078 18.834 144.57C18.5957 145.062 18.252 145.443 17.8027 145.713C17.3574 145.982 16.8418 146.117 16.2559 146.117C15.3613 146.117 14.6445 145.82 14.1055 145.227C13.5703 144.629 13.3027 143.834 13.3027 142.842V142.771ZM14.7266 142.895C14.7266 143.547 14.8613 144.059 15.1309 144.43C15.4004 144.797 15.7754 144.98 16.2559 144.98C16.7363 144.98 17.1094 144.793 17.375 144.418C17.6445 144.043 17.7793 143.494 17.7793 142.771C17.7793 142.131 17.6406 141.623 17.3633 141.248C17.0898 140.873 16.7168 140.686 16.2441 140.686C15.7793 140.686 15.4102 140.871 15.1367 141.242C14.8633 141.609 14.7266 142.16 14.7266 142.895ZM21.7227 139.66L21.7637 140.393C22.2324 139.826 22.8477 139.543 23.6094 139.543C24.9297 139.543 25.6016 140.299 25.625 141.811V146H24.2012V141.893C24.2012 141.49 24.1133 141.193 23.9375 141.002C23.7656 140.807 23.4824 140.709 23.0879 140.709C22.5137 140.709 22.0859 140.969 21.8047 141.488V146H20.3809V139.66H21.7227ZM28.8652 138.119V139.66H29.9844V140.715H28.8652V144.254C28.8652 144.496 28.9121 144.672 29.0059 144.781C29.1035 144.887 29.2754 144.939 29.5215 144.939C29.6855 144.939 29.8516 144.92 30.0195 144.881V145.982C29.6953 146.072 29.3828 146.117 29.082 146.117C27.9883 146.117 27.4414 145.514 27.4414 144.307V140.715H26.3984V139.66H27.4414V138.119H28.8652ZM34.3965 140.961C34.209 140.93 34.0156 140.914 33.8164 140.914C33.1641 140.914 32.7246 141.164 32.498 141.664V146H31.0742V139.66H32.4336L32.4688 140.369C32.8125 139.818 33.2891 139.543 33.8984 139.543C34.1016 139.543 34.2695 139.57 34.4023 139.625L34.3965 140.961ZM34.8184 142.771C34.8184 142.15 34.9414 141.592 35.1875 141.096C35.4336 140.596 35.7793 140.213 36.2246 139.947C36.6699 139.678 37.1816 139.543 37.7598 139.543C38.6152 139.543 39.3086 139.818 39.8398 140.369C40.375 140.92 40.6641 141.65 40.707 142.561L40.7129 142.895C40.7129 143.52 40.5918 144.078 40.3496 144.57C40.1113 145.062 39.7676 145.443 39.3184 145.713C38.873 145.982 38.3574 146.117 37.7715 146.117C36.877 146.117 36.1602 145.82 35.6211 145.227C35.0859 144.629 34.8184 143.834 34.8184 142.842V142.771ZM36.2422 142.895C36.2422 143.547 36.377 144.059 36.6465 144.43C36.916 144.797 37.291 144.98 37.7715 144.98C38.252 144.98 38.625 144.793 38.8906 144.418C39.1602 144.043 39.2949 143.494 39.2949 142.771C39.2949 142.131 39.1562 141.623 38.8789 141.248C38.6055 140.873 38.2324 140.686 37.7598 140.686C37.2949 140.686 36.9258 140.871 36.6523 141.242C36.3789 141.609 36.2422 142.16 36.2422 142.895ZM43.4316 146H42.0078V137H43.4316V146Z" fill="black"/>
</g>
<defs>
<clipPath id="clip0">
<rect width="401" height="242" fill="white"/>
</clipPath>
</defs>
</svg>
